<svg width="32" height="33" viewBox="0 0 32 33" fill="none" xmlns="http://www.w3.org/2000/svg">
<path d="M21.0896 24.892C19.4436 26.0657 17.4656 26.6829 15.4442 26.6534C13.6785 26.6255 11.9328 26.2743 10.2936 25.6174C9.91611 26.497 9.60763 27.4046 9.3709 28.332C9.30909 28.5841 9.15171 28.8023 8.93201 28.9404C8.71232 29.0786 8.44751 29.1259 8.19356 29.0724C7.93961 29.0189 7.7164 28.8688 7.57109 28.6538C7.42579 28.4387 7.36978 28.1756 7.4149 27.92C9.15397 21.6284 12.9861 16.1177 18.2789 12.2974C18.4911 12.1382 18.7578 12.0699 19.0203 12.1074C19.2829 12.1449 19.5198 12.2852 19.6789 12.4974C19.838 12.7095 19.9064 12.9762 19.8688 13.2388C19.8313 13.5013 19.6911 13.7382 19.4789 13.8974C15.9763 16.5134 13.1216 19.8992 11.1349 23.7934C13.2336 24.5934 16.9002 25.44 19.9216 23.268C26.2536 18.7134 24.2469 9.58537 23.0936 5.88137C22.1318 6.88807 20.9471 7.65487 19.6349 8.12004C18.5096 8.50537 17.4816 8.77604 16.4869 9.04004C14.954 9.37599 13.4672 9.89575 12.0589 10.588C7.14556 13.236 7.13623 18.6747 8.32556 21.6854C8.41392 21.9299 8.40359 22.1992 8.29675 22.4362C8.18991 22.6732 7.99498 22.8593 7.75326 22.955C7.51154 23.0507 7.24205 23.0485 7.00192 22.9489C6.76178 22.8493 6.56988 22.6601 6.4669 22.4214C5.01356 18.7467 5.04823 12.0947 11.1109 8.8267C12.6571 8.05825 14.2908 7.48025 15.9762 7.10537C16.9362 6.8507 17.9296 6.58804 18.9816 6.22804C20.3369 5.74295 21.5088 4.85005 22.3362 3.67204C22.4668 3.47823 22.649 3.32487 22.8623 3.22936C23.0756 3.13384 23.3113 3.09999 23.5429 3.13164C23.7744 3.16329 23.9924 3.25917 24.1723 3.40842C24.3521 3.55766 24.4865 3.7543 24.5602 3.97604C25.4522 6.3867 29.5202 18.8294 21.0896 24.892Z" fill="white"/>
</svg>
