<svg width="26" height="27" viewBox="0 0 26 27" fill="none" xmlns="http://www.w3.org/2000/svg">
<path d="M23.9705 5.4934H18.4895V4.51263C18.4895 3.35604 17.5486 2.41504 16.3919 2.41504H9.60807C8.45155 2.41504 7.51055 3.35597 7.51055 4.51263V5.4934H2.02953C0.910442 5.4934 0 6.40377 0 7.52279V21.7961C0 22.9151 0.910442 23.8255 2.02953 23.8255H23.9705C25.0896 23.8255 26 22.9151 26 21.7961V7.52279C26.0001 6.40384 25.0897 5.4934 23.9705 5.4934ZM9.28301 4.51263C9.28301 4.33333 9.42891 4.18743 9.60814 4.18743H16.392C16.5712 4.18743 16.7171 4.33333 16.7171 4.51263V5.4934H9.28301V4.51263ZM2.0296 7.26579H23.9705C24.1123 7.26579 24.2277 7.38107 24.2277 7.52279V12.1734C21.4813 13.1922 17.3388 13.7939 12.9926 13.7939C8.65587 13.7939 4.51903 13.1942 1.77239 12.1789V7.52279C1.77246 7.38107 1.88781 7.26579 2.0296 7.26579ZM23.9705 22.0531H2.0296C1.88781 22.0531 1.77246 21.9379 1.77246 21.7961V14.0566C4.28628 14.8859 7.59137 15.4042 11.1932 15.5341C11.193 15.5444 11.1917 15.5543 11.1917 15.5647V15.9555C11.1917 16.6883 11.7878 17.2843 12.5206 17.2843H13.4796C14.2124 17.2843 14.8085 16.6883 14.8085 15.9555V15.5647C14.8085 15.5543 14.8071 15.5441 14.807 15.5336C18.4111 15.4026 21.7157 14.8828 24.2278 14.0519V21.7961C24.2277 21.9379 24.1123 22.0531 23.9705 22.0531Z" fill="white"/>
</svg>
