<svg width="32" height="33" viewBox="0 0 32 33" fill="none" xmlns="http://www.w3.org/2000/svg">
<path d="M28.4633 17.7404C28.2518 17.4661 27.8579 17.4151 27.5833 17.6266C27.3088 17.8382 27.2579 18.2322 27.4694 18.5066C28.1145 19.3434 28.4554 20.3457 28.4554 21.4051C28.4554 21.7516 28.7364 22.0326 29.0829 22.0326C29.4294 22.0326 29.7103 21.7516 29.7103 21.4051C29.7103 20.0659 29.2791 18.7987 28.4633 17.7404Z" fill="white"/>
<path d="M26.3547 13.5307C27.6287 12.6709 28.4681 11.2142 28.4681 9.56514C28.4681 6.92845 26.3229 4.78333 23.6863 4.78333C21.0496 4.78333 18.9044 6.92845 18.9044 9.56514C18.9044 11.2135 19.743 12.6696 21.016 13.5296C20.0886 13.8435 19.2204 14.3216 18.4495 14.9484C17.7972 14.3211 16.9219 13.9598 16.0001 13.9598C15.0783 13.9598 14.2029 14.3212 13.5511 14.9484C12.7799 14.3216 11.9116 13.8435 10.9841 13.5295C12.2571 12.6695 13.0956 11.2134 13.0956 9.56502C13.0956 6.92833 10.9505 4.7832 8.31381 4.7832C5.67744 4.7832 3.53262 6.92833 3.53262 9.56502C3.53262 11.2141 4.37181 12.6707 5.64556 13.5306C2.37131 14.6431 0.0079375 17.7446 0.000875 21.3888C0.0006875 21.3944 0 21.3996 0 21.4051C0 22.3685 0.547375 23.7901 3.15525 25.0926C5.0135 26.0208 7.56712 26.7185 10.5401 27.1101C12.284 27.3401 14.121 27.4568 16.0001 27.4568C17.8796 27.4568 19.7167 27.3402 21.4606 27.1101C24.4333 26.7185 26.9868 26.0208 28.8449 25.0926C31.4526 23.7901 32 22.3685 32 21.4051C32 17.754 29.6341 14.645 26.3547 13.5307ZM20.1594 9.56514C20.1594 7.62039 21.7416 6.03827 23.6863 6.03827C25.6309 6.03827 27.2131 7.62045 27.2131 9.56514C27.2131 11.5096 25.6309 13.0914 23.6863 13.0914C21.7416 13.0914 20.1594 11.5096 20.1594 9.56514ZM14.1279 16.195C14.5542 15.5812 15.2539 15.2147 16 15.2147C16.7464 15.2147 17.4464 15.5812 17.8727 16.195C17.8728 16.1951 17.8729 16.1953 17.8729 16.1954C18.1389 16.5778 18.2794 17.0269 18.2794 17.4942C18.2794 18.7511 17.2569 19.7737 15.9999 19.7737C14.7433 19.7737 13.7211 18.7511 13.7211 17.4941C13.7211 17.0261 13.8615 16.5772 14.1279 16.195ZM4.78744 9.56514C4.78744 7.62039 6.36931 6.03827 8.31369 6.03827C10.2584 6.03827 11.8406 7.62045 11.8406 9.56514C11.8406 11.5096 10.2584 13.0914 8.31369 13.0914C6.36931 13.0914 4.78744 11.5096 4.78744 9.56514ZM9.99494 25.7652C7.46463 25.3799 5.30463 24.7635 3.71606 23.97C2.13356 23.1797 1.26031 22.2717 1.25525 21.4126C1.25525 21.4101 1.25563 21.4077 1.25563 21.4052C1.25556 17.513 4.42188 14.3463 8.31375 14.3463C9.9695 14.3463 11.5492 14.9183 12.8133 15.966C12.5854 16.4397 12.4663 16.959 12.4663 17.4943C12.4663 18.5866 12.9644 19.5646 13.7453 20.2135C11.5521 21.1052 10.0006 23.257 9.99494 25.7652ZM20.7511 25.9331C19.2249 26.1112 17.6297 26.202 16 26.202C14.3706 26.202 12.7758 26.1112 11.2496 25.9331V25.7791C11.2496 23.1596 13.3806 21.0286 16 21.0286C18.6198 21.0286 20.7511 23.1596 20.7511 25.7791V25.9331ZM28.2841 23.97C26.6957 24.7635 24.5359 25.3798 22.0059 25.7651C22.0002 23.2569 20.4486 21.1053 18.2552 20.2135C19.0363 19.5646 19.5346 18.5865 19.5346 17.4941C19.5346 16.9595 19.4154 16.4401 19.1873 15.966C20.4508 14.9182 22.0303 14.3462 23.6864 14.3462C27.5786 14.3463 30.7451 17.5129 30.7451 21.4051C30.7451 22.2665 29.8711 23.1773 28.2841 23.97Z" fill="white"/>
<path d="M26.5832 16.2666C25.7757 16.2666 25.7743 17.5215 26.5832 17.5215C27.3907 17.5215 27.392 16.2666 26.5832 16.2666Z" fill="white"/>
</svg>
