<svg width="29" height="30" viewBox="0 0 29 30" fill="none" xmlns="http://www.w3.org/2000/svg">
<g clip-path="url(#clip0_181_195)">
<path d="M10.068 6.92951C9.98472 7.18592 10.0667 7.46074 10.2769 7.6297L12.148 9.13362L11.5182 11.4502C11.4475 11.7103 11.5427 11.9808 11.761 12.1395C11.9793 12.2979 12.2658 12.3048 12.4914 12.1572L14.4999 10.8424L16.5085 12.1573C16.6168 12.2281 16.7391 12.2634 16.8612 12.2634C16.9935 12.2634 17.1255 12.222 17.2388 12.1395C17.4572 11.9809 17.5525 11.7103 17.4816 11.4502L16.8518 9.13368L18.7228 7.62981C18.9331 7.46091 19.0152 7.18603 18.9318 6.92951C18.8485 6.67293 18.6205 6.49876 18.3512 6.48573L15.9534 6.36882L15.1013 4.12461C15.0057 3.8725 14.7695 3.70955 14.4999 3.70955C14.2302 3.70955 13.9941 3.87244 13.8985 4.12455L13.0463 6.36888L10.6487 6.48573C10.3793 6.49876 10.1514 6.67293 10.068 6.92951ZM13.2623 7.26561C13.5179 7.25315 13.7417 7.09054 13.8324 6.8514L14.4998 5.09356L15.1673 6.85157C15.2581 7.09065 15.482 7.25315 15.7373 7.26561L17.6153 7.3572L16.1497 8.53516C15.9503 8.69551 15.8649 8.9586 15.932 9.20533L16.4253 11.0198L14.852 9.98986C14.745 9.91985 14.6224 9.88485 14.4998 9.88485C14.3771 9.88485 14.2544 9.91991 14.1473 9.98992L12.5742 11.0198L13.0675 9.20544C13.1347 8.95855 13.0492 8.69539 12.8497 8.53516L11.3841 7.35726L13.2623 7.26561ZM14.0467 2.2361V0.573242C14.0467 0.323004 14.2496 0.120117 14.4998 0.120117C14.7501 0.120117 14.9529 0.323004 14.9529 0.573242V2.2361C14.9529 2.48634 14.7501 2.68922 14.4998 2.68922C14.2496 2.68922 14.0467 2.48634 14.0467 2.2361ZM16.8062 4.92075C16.6387 4.7348 16.6538 4.44825 16.8397 4.28082L18.6927 2.6123C18.8787 2.44482 19.1652 2.45983 19.3327 2.64584C19.5001 2.83179 19.4851 3.11833 19.2992 3.28576L17.4461 4.95428C17.3595 5.03228 17.2511 5.07068 17.143 5.07068C17.0191 5.07068 16.8957 5.02015 16.8062 4.92075ZM9.66696 2.64584C9.83439 2.45983 10.1209 2.44482 10.3069 2.6123L12.16 4.28082C12.346 4.44825 12.361 4.7348 12.1935 4.92075C12.104 5.0201 11.9806 5.07068 11.8566 5.07068C11.7486 5.07068 11.6402 5.03228 11.5535 4.95428L9.70049 3.28576C9.51449 3.11833 9.49953 2.83179 9.66696 2.64584ZM20.3131 7.6297L22.1842 9.13362L21.5544 11.4502C21.4837 11.7103 21.5789 11.9808 21.7972 12.1395C22.0153 12.2979 22.3019 12.3048 22.5276 12.1572L24.5361 10.8424L26.5447 12.1573C26.653 12.2281 26.7753 12.2634 26.8974 12.2634C27.0297 12.2634 27.1617 12.222 27.2751 12.1395C27.4933 11.9811 27.5886 11.7105 27.5178 11.4502L26.888 9.13368L28.759 7.62981C28.9693 7.46097 29.0513 7.18609 28.9679 6.92951C28.8846 6.67293 28.6567 6.49876 28.3874 6.48573L25.9897 6.36882L25.1376 4.12461C25.0419 3.8725 24.8058 3.70955 24.5361 3.70955C24.2664 3.70955 24.0303 3.87244 23.9346 4.12455L23.0826 6.36882L20.685 6.48567C20.4155 6.4987 20.1876 6.67293 20.1042 6.92951C20.0209 7.18603 20.1029 7.46091 20.3131 7.6297ZM23.2985 7.26561C23.5541 7.25315 23.778 7.09054 23.8687 6.85135L24.5361 5.0935L25.2034 6.85129C25.2942 7.09054 25.5181 7.25315 25.7736 7.26556L27.6516 7.35715L26.1861 8.53499C25.9866 8.69528 25.9011 8.95843 25.9682 9.20527L26.4615 11.0197L24.8883 9.9898C24.7812 9.9198 24.6586 9.88479 24.536 9.88479C24.4133 9.88479 24.2906 9.91985 24.1836 9.98986L22.6105 11.0197L23.1038 9.20539C23.1709 8.9586 23.0855 8.69551 22.886 8.5351L21.4204 7.35715L23.2985 7.26561ZM0.240545 7.6297L2.11167 9.13362L1.48188 11.4502C1.41119 11.7103 1.50641 11.9808 1.72464 12.1395C1.94294 12.2979 2.22948 12.3048 2.45508 12.1572L4.46361 10.8424L6.4722 12.1573C6.5805 12.2281 6.70279 12.2634 6.82485 12.2634C6.95716 12.2634 7.08919 12.222 7.20253 12.1395C7.42076 11.9811 7.51603 11.7105 7.44529 11.4502L6.8155 9.13368L8.68651 7.62981C8.89665 7.46108 8.97872 7.18626 8.8954 6.92923C8.81191 6.67281 8.58399 6.4987 8.31489 6.48567L5.91713 6.36877L5.06508 4.12461C4.96941 3.8725 4.73328 3.70955 4.46361 3.70955C4.19389 3.70955 3.95776 3.87244 3.86209 4.12455L3.01005 6.36882L0.612448 6.48567C0.343008 6.4987 0.115086 6.67293 0.0318246 6.92923C-0.0517203 7.18586 0.0302387 7.46085 0.240545 7.6297ZM3.22596 7.26561C3.48158 7.25315 3.70542 7.09054 3.79616 6.85135L4.46356 5.0935L5.1309 6.85129C5.22169 7.09054 5.44554 7.25315 5.70104 7.26556L7.57907 7.35715L6.11361 8.53499C5.91407 8.69528 5.82854 8.95843 5.89572 9.20527L6.389 11.0197L4.81575 9.9898C4.7087 9.9198 4.58607 9.88479 4.46344 9.88479C4.34076 9.88479 4.21808 9.91985 4.11108 9.98986L2.53795 11.0197L3.03123 9.20539C3.09835 8.9586 3.01293 8.69551 2.81345 8.5351L1.34787 7.35715L3.22596 7.26561ZM28.9285 24.1886C28.6097 23.159 27.9567 22.2345 27.0897 21.5853C26.6746 21.2745 26.2226 21.0324 25.7458 20.861C26.4069 20.3422 26.8328 19.5367 26.8328 18.6332C26.8328 17.0718 25.5625 15.8016 24.0012 15.8016C22.4399 15.8016 21.1696 17.0718 21.1696 18.6332C21.1696 19.5357 21.5945 20.3403 22.2543 20.8592C21.37 21.1748 20.5867 21.7293 19.9868 22.4765C19.7065 22.0843 19.383 21.72 19.0195 21.3912C18.2869 20.7286 17.4271 20.2421 16.5012 19.9545C17.4831 19.3036 18.1322 18.1891 18.1322 16.9254C18.1322 14.9226 16.5027 13.2931 14.4999 13.2931C12.4971 13.2931 10.8676 14.9226 10.8676 16.9254C10.8676 18.1891 11.5166 19.3036 12.4985 19.9545C11.5725 20.242 10.7128 20.7286 9.98018 21.3912C9.61661 21.72 9.29319 22.0843 9.01288 22.4765C8.41305 21.7292 7.62971 21.1747 6.74544 20.859C7.40513 20.3401 7.83011 19.5355 7.83011 18.633C7.83011 17.0716 6.55983 15.8014 4.99853 15.8014C3.43717 15.8014 2.16689 17.0716 2.16689 18.633C2.16689 19.5365 2.59283 20.342 3.25383 20.8608C2.77703 21.0322 2.32503 21.2743 1.90991 21.5851C1.04292 22.2343 0.389907 23.1588 0.0710766 24.1884C-0.0762457 24.6639 0.00537345 25.1465 0.300868 25.5475C0.596305 25.9482 1.03323 26.1689 1.5311 26.1689H7.79516V26.9867C7.79516 28.1631 8.75222 29.1202 9.92864 29.1202H19.071C20.2474 29.1202 21.2045 28.1631 21.2045 26.9867V26.1691H27.4685C27.9665 26.1691 28.4034 25.9484 28.6988 25.5477C28.9942 25.1468 29.0758 24.6641 28.9285 24.1886ZM24.0012 16.7078C25.0628 16.7078 25.9266 17.5715 25.9266 18.6332C25.9266 19.6948 25.0628 20.5585 24.0012 20.5585C22.9396 20.5585 22.0758 19.6948 22.0758 18.6332C22.0758 17.5715 22.9396 16.7078 24.0012 16.7078ZM11.7738 16.9254C11.7738 15.4223 12.9967 14.1994 14.4999 14.1994C16.003 14.1994 17.2259 15.4223 17.2259 16.9254C17.2259 18.4281 16.0038 19.6506 14.5014 19.6514C14.5008 19.6514 14.5003 19.6514 14.4998 19.6514C14.4994 19.6514 14.4989 19.6514 14.4984 19.6514C12.9959 19.6505 11.7738 18.428 11.7738 16.9254ZM4.99853 16.7076C6.06014 16.7076 6.92386 17.5713 6.92386 18.6329C6.92386 19.6946 6.06014 20.5583 4.99853 20.5583C3.93686 20.5583 3.07314 19.6946 3.07314 18.6329C3.07314 17.5713 3.93686 16.7076 4.99853 16.7076ZM7.85401 25.2626H1.53116C1.32261 25.2626 1.15416 25.1775 1.0304 25.0096C0.906582 24.8418 0.875147 24.6556 0.936828 24.4564C1.491 22.6669 3.12333 21.4646 4.99853 21.4646C6.41698 21.4646 7.70912 22.1499 8.50385 23.3101C8.18966 23.9205 7.96961 24.5783 7.85401 25.2626ZM20.2983 26.9866C20.2982 27.6633 19.7477 28.2139 19.071 28.2139H9.92864C9.25196 28.2139 8.70141 27.6633 8.70141 26.9866V25.7404C9.02947 22.7844 11.5174 20.5584 14.4984 20.5576C14.4989 20.5576 14.4994 20.5577 14.4999 20.5577C14.5004 20.5577 14.5009 20.5576 14.5014 20.5576C17.4823 20.5584 19.9701 22.7844 20.2983 25.7404V26.9866ZM27.9693 25.0099C27.8455 25.1778 27.6772 25.2628 27.4685 25.2628H21.1458C21.0301 24.5785 20.81 23.9206 20.4959 23.3102C21.2907 22.1501 22.5828 21.4648 24.0012 21.4648C25.8764 21.4648 27.5087 22.6672 28.0629 24.4567C28.1246 24.6558 28.0931 24.8419 27.9693 25.0099Z" fill="white"/>
</g>
<defs>
<clipPath id="clip0_181_195">
<rect width="29" height="29" fill="white" transform="translate(0 0.120117)"/>
</clipPath>
</defs>
</svg>
