<svg width="27" height="27" viewBox="0 0 27 27" fill="none" xmlns="http://www.w3.org/2000/svg">
<path d="M21.6046 20.9102C21.3817 20.7398 21.0631 20.7826 20.8928 21.0053C20.7224 21.2282 20.765 21.5469 20.9879 21.7172L21.8557 22.3805C21.9474 22.4506 22.0559 22.4848 22.1638 22.4848C22.3027 22.4848 22.4406 22.428 22.5404 22.3179L24.1991 20.4864C24.3874 20.2785 24.3716 19.9574 24.1637 19.7691C23.9558 19.5809 23.6346 19.5968 23.4464 19.8046L22.1013 21.2899L21.6046 20.9102Z" fill="white"/>
<path d="M26.9964 18.1991C26.9906 17.9402 26.7909 17.7272 26.533 17.7046C25.3249 17.5991 23.8383 16.7876 22.7456 15.6374C22.6497 15.5366 22.5167 15.4794 22.3775 15.4794C22.3775 15.4794 22.3774 15.4794 22.3774 15.4794C22.2384 15.4794 22.1054 15.5364 22.0095 15.6372C21.519 16.1528 20.9496 16.6 20.3621 16.9464C19.3311 15.7955 18.0622 14.9475 16.5749 14.4137C16.562 14.4085 16.5489 14.4038 16.5355 14.3997C16.4196 14.3586 16.3024 14.3195 16.184 14.2822C17.4417 13.0278 18.2877 11.3793 18.2877 9.90051V9.10268C18.8823 8.8438 19.2993 8.25036 19.2993 7.5611C19.2993 6.84513 18.8486 6.23275 18.2162 5.99179C17.9552 3.45774 16.1699 1.32754 13.7175 0.622795C13.645 0.277631 13.3383 0.0175781 12.972 0.0175781H11.1318C10.7785 0.0175781 10.4815 0.259705 10.3958 0.586587C9.18943 0.90829 8.08757 1.59496 7.26145 2.54966C6.42294 3.51867 5.90152 4.7288 5.76908 5.99205C5.13639 6.23316 4.6856 6.84538 4.6856 7.56115C4.6856 8.25067 5.10318 8.84425 5.69854 9.10299V9.90057C5.69854 11.378 6.54472 13.0271 7.80243 14.2824C7.68741 14.3185 7.5735 14.3564 7.46092 14.3961C7.43878 14.4024 7.41725 14.4101 7.39628 14.4193C5.73165 15.0198 4.34191 16.0138 3.25355 17.3865C2.20684 18.7067 1.46274 20.3371 1.04196 22.2327C0.892204 22.9101 0.779571 23.7614 1.24148 24.3365C1.69268 24.8983 2.5 24.9703 3.15301 24.9703H6.47489C6.75536 24.9703 6.98271 24.7429 6.98271 24.4625C6.98271 24.1821 6.75536 23.9547 6.47489 23.9547H3.15301C2.5455 23.9547 2.16881 23.8692 2.03337 23.7006C1.88991 23.5219 1.89001 23.1018 2.03352 22.4523C2.5613 20.0751 3.85176 17.1661 6.96098 15.6973C6.86535 17.4129 7.79491 18.5342 8.38576 19.2459C8.4762 19.3549 8.60803 19.4211 8.74946 19.4287C8.89078 19.4365 9.02901 19.3844 9.13052 19.2857L11.9925 16.5024L14.8558 19.2858C14.9508 19.3781 15.0779 19.4294 15.2098 19.4294C15.2188 19.4294 15.2279 19.4292 15.2371 19.4287C15.3786 19.4211 15.5104 19.3547 15.6008 19.2456C16.1909 18.5333 17.119 17.4112 17.0243 15.6993C17.9263 16.1272 18.7233 16.6994 19.4086 17.4123C18.9994 17.5707 18.597 17.6719 18.2218 17.7047C17.964 17.7272 17.7644 17.94 17.7583 18.1988C17.7158 20.0144 18.0184 21.3151 18.8371 22.8376C18.8441 22.8505 19.1207 23.3464 19.5518 23.9548H11.0723C10.7918 23.9548 10.5645 24.1822 10.5645 24.4626C10.5645 24.743 10.7918 24.9704 11.0723 24.9704H20.3583C20.9705 25.6471 21.6926 26.2229 22.3773 26.2229C24.0294 26.2229 25.8994 22.8715 25.9173 22.838C26.7347 21.3152 27.0372 20.0147 26.9964 18.1991ZM17.1797 5.88216H14.3837C13.8555 4.50226 13.7556 3.3644 13.7376 1.69404C15.5693 2.34186 16.9008 3.95804 17.1797 5.88216ZM11.3855 1.03321H12.7183C12.7215 2.99887 12.7713 4.33017 13.3035 5.88216H10.8013C11.3326 4.33011 11.3823 2.99867 11.3855 1.03321ZM10.3667 1.65397C10.3499 3.34632 10.2528 4.49119 9.72132 5.88221H6.80635C7.096 3.93305 8.49717 2.27305 10.3667 1.65397ZM6.36602 6.89779H9.76321C9.79312 6.92206 9.82207 6.92516 9.84634 6.89779H17.6203C17.986 6.89779 18.2836 7.19532 18.2836 7.56115C18.2836 7.92775 17.9861 8.22599 17.6203 8.22599H6.36602C5.99948 8.22599 5.70123 7.92775 5.70123 7.56115C5.70123 7.19537 5.99942 6.89779 6.36602 6.89779ZM6.71418 9.90057V9.24157H17.2721V9.90057C17.2721 11.8367 15.3964 14.2312 13.2581 15.0249C12.3224 15.3727 11.6581 15.3723 10.7203 15.0238C8.58619 14.2268 6.71418 11.8327 6.71418 9.90057ZM8.82172 18.1693C8.29613 17.4831 7.79004 16.5822 8.03328 15.2745C8.25728 15.2022 8.48874 15.1363 8.72874 15.0779C9.24082 15.4536 9.79312 15.7617 10.3657 15.9756C10.55 16.044 10.7273 16.1005 10.9008 16.1474L8.82172 18.1693ZM15.1641 18.1689L13.0837 16.1468C13.255 16.1003 13.43 16.0446 13.6117 15.9771C14.1871 15.7635 14.7421 15.4547 15.2565 15.0778C15.4936 15.1355 15.7254 15.2009 15.9516 15.2741C16.1954 16.5799 15.6895 17.4817 15.1641 18.1689ZM25.0223 22.3579C24.4218 23.4787 23.0154 25.2072 22.3773 25.2072C21.7393 25.2072 20.3329 23.4787 19.732 22.3572C19.0609 21.1094 18.7856 20.0688 18.7706 18.652C19.3185 18.5477 19.8888 18.3433 20.4496 18.0578C20.4693 18.0492 20.4885 18.0391 20.5074 18.0278C21.1622 17.6874 21.8027 17.2369 22.3771 16.7016C23.4587 17.7106 24.7754 18.4222 25.9837 18.652C25.9677 20.069 25.6923 21.1098 25.0223 22.3579Z" fill="white"/>
<path d="M8.77384 23.9546C8.49337 23.9546 8.26602 24.182 8.26602 24.4624C8.26602 24.7428 8.49337 24.9702 8.77384 24.9702H8.77673C9.0572 24.9702 9.28308 24.7428 9.28308 24.4624C9.28308 24.182 9.05431 23.9546 8.77384 23.9546Z" fill="white"/>
</svg>
