<svg width="34" height="22" viewBox="0 0 34 22" fill="none" xmlns="http://www.w3.org/2000/svg">
<path d="M0.644078 11.2164L3.35378 12.2855C3.71184 12.4266 4.10224 12.3521 4.38148 12.118L6.52733 13.4713L6.89535 13.7301C6.42852 14.4689 6.54811 15.4785 7.25793 16.0804C7.64793 16.4111 8.14352 16.5522 8.62862 16.4993C8.6571 17.0093 8.889 17.4634 9.26638 17.7833C9.63726 18.0978 10.1214 18.2588 10.637 18.2026C10.6657 18.7123 10.8974 19.1663 11.2748 19.4863C11.6492 19.8037 12.1343 19.9613 12.6463 19.9055C12.6731 20.3857 12.8884 20.8544 13.2833 21.1893C14.046 21.8361 15.1935 21.7423 15.8402 20.9796L16.2708 20.4742L16.9964 21.0097C18.2509 21.9357 20.0241 21.1771 20.1877 19.6379C21.4811 20.1079 22.8545 19.2014 22.8745 17.8092C24.0937 18.0385 25.1756 17.153 25.2435 15.9784C26.825 16.4008 28.2554 14.8026 27.5571 13.24L29.4961 11.9945C29.7738 12.3234 30.2352 12.4477 30.6466 12.2854L33.3563 11.2164C33.8778 11.0107 34.1349 10.419 33.9291 9.89729L32.6906 6.75801C32.5897 6.50208 32.3003 6.37657 32.0445 6.47751C31.7886 6.57844 31.663 6.86771 31.764 7.12357L33.0024 10.2628C33.0066 10.2735 33.0014 10.2856 32.9907 10.2899L30.281 11.3588C30.2702 11.363 30.2582 11.3578 30.254 11.3471C30.1591 11.1066 27.1176 3.39686 26.8487 2.71513C26.8477 2.71274 26.8455 2.70717 26.8489 2.69926C26.8524 2.69136 26.858 2.68917 26.8603 2.68817L29.5701 1.61917C29.5724 1.61817 29.578 1.61598 29.5861 1.61943C29.5939 1.62289 29.5961 1.62846 29.5971 1.63086L30.91 4.95873C31.011 5.21466 31.3003 5.34017 31.5561 5.23923C31.812 5.13829 31.9376 4.84903 31.8366 4.59317L30.5237 1.26536C30.3181 0.743802 29.7262 0.486811 29.2047 0.692603L26.4949 1.76161C26.0107 1.95259 25.7551 2.47215 25.885 2.96469L24.4323 3.50085C23.9803 3.66773 23.4896 3.71614 23.0133 3.64064L21.5449 3.40788C21.2733 3.36492 21.0181 3.55026 20.9751 3.82179C20.9321 4.09346 21.1173 4.34866 21.389 4.39169L22.8574 4.62444C23.5017 4.72651 24.1655 4.6611 24.7773 4.43525L26.2431 3.89418C26.4022 4.29753 28.913 10.6618 29.0777 11.0794L26.9405 12.4521L26.9042 12.4253C26.9041 12.4252 26.9039 12.425 26.9038 12.425C26.6748 12.256 22.9587 9.51353 22.7843 9.38477C22.6775 9.30594 22.5448 9.27055 22.3922 9.29645C20.329 9.64727 18.4804 8.91361 17.1205 7.49365C16.6974 7.05185 16.007 7.02815 15.5486 7.43973C14.2293 8.62461 12.3857 9.78002 11.0957 8.55409C10.9676 8.43237 10.9666 8.20752 11.1613 8.08188C12.8044 7.02489 14.5066 5.54078 15.8764 4.15502C16.2174 3.81004 16.7077 3.64967 17.189 3.72597L19.0795 4.02566C19.3517 4.06876 19.6063 3.88335 19.6493 3.61175C19.6923 3.34008 19.5071 3.08488 19.2354 3.04185L17.3449 2.74216C16.5477 2.61586 15.7341 2.88228 15.1681 3.45483C15.0096 3.61507 14.8222 3.80114 14.6109 4.00521C13.9732 3.77909 13.3085 3.64402 12.6323 3.60604C10.6531 3.49487 10.4815 3.47389 10.032 3.50278C9.67929 3.52529 9.32044 3.46533 8.99405 3.32879L8.11629 2.9615C8.243 2.47182 7.9878 1.95166 7.50556 1.76148L4.79586 0.692603C4.2741 0.486744 3.68242 0.743736 3.4767 1.26536L0.0713257 9.89729C-0.134865 10.42 0.12113 11.0102 0.644078 11.2164ZM9.05587 15.2256C8.76402 15.5698 8.24652 15.6125 7.90213 15.3206C7.55549 15.0267 7.51618 14.5101 7.80644 14.1677L9.03834 12.7218C9.32329 12.3856 9.84219 12.3302 10.1921 12.6268C10.5371 12.9193 10.5798 13.4354 10.287 13.7805C10.2869 13.7807 10.2868 13.7808 10.2867 13.7809L9.05587 15.2256ZM11.0643 16.9286C10.7717 17.2736 10.2558 17.3162 9.91059 17.0236C9.56395 16.7297 9.52463 16.213 9.81489 15.8707L11.0468 14.4248C11.3527 14.0638 11.9198 14.0323 12.2612 14.3867C12.2634 14.3891 12.2653 14.3917 12.2676 14.394C12.5488 14.6931 12.5671 15.1632 12.2955 15.4836L11.0643 16.9286ZM13.0727 18.6316C12.7791 18.9779 12.2627 19.0179 11.919 18.7265C11.5724 18.4327 11.533 17.916 11.8233 17.5737L13.0552 16.1277C13.3479 15.7827 13.8673 15.7428 14.209 16.0328C14.5532 16.3247 14.5958 16.8422 14.3039 17.1865C14.3038 17.1866 14.3037 17.1868 14.3036 17.1869L13.0727 18.6316ZM16.3191 18.8807C16.317 18.8832 16.3153 18.886 16.3131 18.8885C16.1144 19.1217 15.5669 19.7643 15.0812 20.3345C14.7893 20.6788 14.2718 20.7214 13.9275 20.4295C13.5832 20.1376 13.5406 19.6201 13.8317 19.2767L15.0637 17.8307C15.3572 17.4845 15.8741 17.4445 16.2174 17.7357C16.5551 18.0219 16.6068 18.5327 16.3191 18.8807ZM7.75837 3.89172L8.60949 4.24785C9.07659 4.44329 9.59058 4.52942 10.0957 4.49694C10.4766 4.47244 10.6038 4.48984 12.5763 4.60067C12.9813 4.62345 13.3817 4.68614 13.7728 4.78787C12.7983 5.66788 11.7039 6.54996 10.6077 7.25386C9.90494 7.70502 9.80082 8.69793 10.4096 9.27646C11.2416 10.067 13.1022 10.9759 16.2141 8.18102C16.2699 8.13095 16.352 8.13162 16.4009 8.18282C17.9083 9.75624 20.045 10.6351 22.3524 10.3109C22.6139 10.4946 22.1077 10.1237 26.3121 13.2266C26.7621 13.5587 26.888 14.2117 26.5357 14.6624C26.2011 15.0905 25.5964 15.1735 25.1596 14.8509C24.5693 14.4153 25.0051 14.7469 22.9302 13.1481C22.7122 12.9802 22.3996 13.0208 22.2316 13.2386C22.0638 13.4565 22.1043 13.7692 22.3222 13.9372L24.0436 15.2636C24.3402 15.6543 24.3048 16.219 23.9538 16.5692C23.6086 16.9136 23.0404 16.9462 22.6321 16.6449C22.2373 16.3536 22.5653 16.6032 20.7546 15.2092C20.5367 15.0414 20.2239 15.0821 20.0562 15.3001C19.8884 15.518 19.929 15.8307 20.147 15.9986L21.6734 17.1737C21.9616 17.5466 21.9475 18.0829 21.6327 18.4398C21.2941 18.8237 20.694 18.8772 20.2665 18.5616C19.5795 18.0547 19.9243 18.3165 18.6014 17.2925C18.3838 17.1242 18.071 17.164 17.9026 17.3816C17.7343 17.5991 17.7741 17.9119 17.9917 18.0802L19.0499 18.8992C19.2906 19.2823 19.2434 19.7841 18.9269 20.1152C18.5814 20.4766 18.0057 20.5167 17.5877 20.2082L16.9182 19.7142L17.072 19.5336C17.3787 19.1721 17.537 18.7039 17.4965 18.2112C17.4553 17.7122 17.2182 17.2785 16.8615 16.976C16.4905 16.6614 16.0059 16.5002 15.4905 16.5562C15.4634 16.075 15.2427 15.6036 14.8531 15.273C14.4834 14.9596 14.0142 14.809 13.5306 14.8485C13.5144 14.8499 13.4983 14.8514 13.4823 14.8532C13.4814 14.8372 13.4808 14.8213 13.4795 14.8053C13.4478 14.4202 13.2978 14.0635 13.0511 13.7758C13.0495 13.774 13.0481 13.7722 13.0466 13.7704C12.6542 13.3164 12.0699 13.087 11.4745 13.1511C11.4464 12.651 11.2197 12.1924 10.8362 11.8671C10.0728 11.22 8.92552 11.3144 8.27919 12.0767L7.5286 12.9577L7.08985 12.6494C7.08308 12.6446 7.07618 12.6399 7.06914 12.6355L4.85874 11.2415C6.52985 7.00563 5.90391 8.59228 7.75837 3.89172ZM0.99789 10.2629L4.4032 1.63099C4.40645 1.62275 4.41429 1.61777 4.42259 1.61777C4.42511 1.61777 4.4277 1.61824 4.43022 1.61923L7.13992 2.68824C7.15062 2.69242 7.15586 2.70458 7.15168 2.7152C6.98785 3.1305 3.85349 11.0755 3.74631 11.3472C3.74192 11.358 3.73024 11.3631 3.71935 11.3589L1.00964 10.2899C0.998886 10.2856 0.993574 10.2736 0.99789 10.2629Z" fill="white"/>
</svg>
