<svg width="22" height="29" viewBox="0 0 22 29" fill="none" xmlns="http://www.w3.org/2000/svg">
<path d="M0.670898 6.12437L6.50425 0.291016C6.61362 0.181641 6.76172 0.120117 6.9167 0.120117H19.1667C20.453 0.120117 21.5 1.16656 21.5 2.45347V25.7868C21.5 27.0737 20.453 28.1201 19.1666 28.1201H2.8333C1.54705 28.1201 0.5 27.0737 0.5 25.7868V6.53677C0.5 6.38184 0.561523 6.23374 0.670898 6.12437ZM6.33335 2.11167L2.49155 5.95347H5.1667C5.81043 5.95347 6.33335 5.42995 6.33335 4.78682V2.11167ZM1.66665 25.7868C1.66665 26.4299 2.18962 26.9534 2.8333 26.9534H19.1666C19.8104 26.9534 20.3333 26.4299 20.3333 25.7868V2.45347C20.3333 1.81034 19.8103 1.28682 19.1666 1.28682H7.5V4.78682C7.5 6.07367 6.45295 7.12012 5.16665 7.12012H1.66665V25.7868Z" fill="white"/>
<path d="M4.58337 16.4536H12.75C13.0725 16.4536 13.3334 16.7145 13.3334 17.037C13.3334 17.3594 13.0725 17.6203 12.75 17.6203H4.58337C4.26094 17.6203 4.00002 17.3594 4.00002 17.037C4.00002 16.7145 4.26094 16.4536 4.58337 16.4536Z" fill="white"/>
<path d="M17.4166 7.12032H10.4166C10.0942 7.12032 9.8333 6.8594 9.8333 6.53696C9.8333 6.21453 10.0942 5.95361 10.4166 5.95361H17.4166C17.7391 5.95361 18 6.21453 18 6.53696C18 6.8594 17.7391 7.12032 17.4166 7.12032Z" fill="white"/>
<path d="M4.58335 12.9536H17.4166C17.7391 12.9536 18 13.2145 18 13.537C18 13.8594 17.7391 14.1203 17.4166 14.1203H4.5833C4.26086 14.1203 3.99995 13.8594 3.99995 13.537C4 13.2145 4.26091 12.9536 4.58335 12.9536Z" fill="white"/>
<path d="M18 10.037C18 10.3594 17.7391 10.6203 17.4166 10.6203H4.5833C4.26086 10.6203 3.99995 10.3594 3.99995 10.037C3.99995 9.71453 4.26086 9.45361 4.5833 9.45361H17.4166C17.7391 9.45367 18 9.71458 18 10.037Z" fill="white"/>
<path d="M9.65901 21.2875C10.5169 22.1317 11.5981 23.083 12.0265 23.3724C12.1279 23.1429 12.243 22.7589 12.3125 22.5259C12.5495 21.7403 12.7352 21.12 13.3334 21.12C13.8449 21.12 14.0751 21.5877 14.4237 22.2952C14.5946 22.6415 14.9489 23.3628 15.0777 23.4533C15.2042 23.4402 15.4206 23.2927 15.6587 23.0705C15.0161 22.2405 14.5 21.2795 14.5 20.5366C14.5 19.2617 15.5732 18.7866 16.25 18.7866C16.9381 18.7866 18 19.7887 18 21.12C18 21.7102 17.673 22.4393 17.2093 23.079C17.3939 23.2636 17.5819 23.4311 17.7665 23.5701C18.024 23.7632 18.0764 24.1289 17.8838 24.3864C17.7688 24.5396 17.5933 24.62 17.4167 24.62C17.2948 24.62 17.1718 24.5818 17.0669 24.5032C16.8652 24.3523 16.6488 24.1626 16.4312 23.9461C15.9743 24.3528 15.489 24.62 15.0834 24.62C14.2949 24.62 13.8267 23.7228 13.4199 22.8973C13.151 23.7883 12.8913 24.62 12.1666 24.62C11.9718 24.62 11.3805 24.62 8.84094 22.1192C8.61081 21.893 8.60851 21.5239 8.8341 21.2943C9.05974 21.0636 9.42888 21.0624 9.65901 21.2875ZM16.4277 22.1545C16.6647 21.7933 16.8334 21.4185 16.8334 21.12C16.8334 20.4085 16.3115 19.992 16.25 19.9533C16.1531 19.9533 15.6666 19.9812 15.6666 20.5367C15.6666 20.9086 15.9811 21.5364 16.4277 22.1545Z" fill="white"/>
</svg>
