<svg width="28" height="29" viewBox="0 0 28 29" fill="none" xmlns="http://www.w3.org/2000/svg">
<g clip-path="url(#clip0_181_250)">
<path d="M14.0004 28.1201C11.7911 28.1199 9.61323 27.5968 7.64483 26.5936C5.67643 25.5904 3.9734 24.1356 2.67496 22.3481C1.37652 20.5606 0.519555 18.4912 0.174116 16.3091C-0.171324 14.127 0.00457454 11.8941 0.687429 9.79297C1.37028 7.69185 2.54071 5.78216 4.10301 4.22004C5.66531 2.65793 7.57513 1.48773 9.67633 0.805117C11.7775 0.122508 14.0105 -0.0531281 16.1925 0.292567C18.3746 0.638262 20.4439 1.49547 22.2312 2.79412C22.3242 2.86176 22.4029 2.94704 22.4628 3.04509C22.5228 3.14315 22.5628 3.25205 22.5807 3.36558C22.5986 3.47912 22.5939 3.59506 22.567 3.7068C22.5401 3.81853 22.4914 3.92386 22.4237 4.01679C22.3561 4.10971 22.2708 4.1884 22.1728 4.24836C22.0747 4.30832 21.9658 4.34838 21.8523 4.36626C21.7387 4.38413 21.6228 4.37947 21.5111 4.35254C21.3993 4.3256 21.294 4.27693 21.2011 4.20929C18.7669 2.44344 15.7675 1.63617 12.7759 1.94167C9.78418 2.24717 7.00989 3.64403 4.98288 5.86545C2.95587 8.08686 1.81822 10.9771 1.78722 13.9842C1.75622 16.9913 2.83404 19.9044 4.81482 22.1671C6.7956 24.4298 9.5405 25.8836 12.5252 26.2507C15.51 26.6178 18.5254 25.8726 20.9954 24.1573C23.4655 22.442 25.2171 19.8769 25.9157 16.952C26.6144 14.027 26.211 10.9472 24.7827 8.30079C24.6807 8.09739 24.6618 7.86223 24.7303 7.64518C24.7987 7.42814 24.949 7.24629 25.1493 7.13822C25.3495 7.03015 25.584 7.00437 25.803 7.06633C26.022 7.12829 26.2082 7.27313 26.3222 7.47012C27.4722 9.6031 28.049 11.998 27.9963 14.4207C27.9436 16.8433 27.2631 19.2109 26.0214 21.2918C24.7797 23.3728 23.0193 25.0959 20.9123 26.2928C18.8052 27.4896 16.4237 28.1193 14.0004 28.1201Z" fill="white"/>
<path d="M23.9871 6.47842C23.8603 6.47854 23.7351 6.45111 23.6199 6.39803C23.5048 6.34495 23.4026 6.26749 23.3204 6.171L23.1629 5.98959C23.0844 5.90391 23.0237 5.80345 22.9844 5.69407C22.9452 5.58469 22.9281 5.46859 22.9342 5.35254C22.9403 5.23649 22.9694 5.12282 23.0199 5.01816C23.0704 4.91349 23.1413 4.81994 23.2283 4.74296C23.3154 4.66598 23.4169 4.60711 23.527 4.56979C23.637 4.53247 23.7534 4.51744 23.8693 4.52559C23.9853 4.53374 24.0984 4.5649 24.2022 4.61725C24.3059 4.6696 24.3982 4.7421 24.4736 4.8305L24.6527 5.03642C24.7609 5.16361 24.8305 5.31911 24.8532 5.48456C24.8758 5.65001 24.8507 5.81849 24.7807 5.97012C24.7107 6.12174 24.5988 6.25017 24.4582 6.34024C24.3176 6.43031 24.1541 6.47826 23.9871 6.47842Z" fill="white"/>
<path d="M15.279 13.2452H14.6956V9.23243H15.279C15.811 9.23305 16.321 9.44466 16.6972 9.82085C17.0734 10.197 17.285 10.7071 17.2856 11.2391C17.2856 11.4712 17.3778 11.6937 17.5419 11.8578C17.706 12.0219 17.9286 12.1141 18.1606 12.1141C18.3927 12.1141 18.6153 12.0219 18.7794 11.8578C18.9434 11.6937 19.0356 11.4712 19.0356 11.2391C19.0346 10.2431 18.6384 9.28821 17.9341 8.58393C17.2299 7.87965 16.275 7.48351 15.279 7.48243H14.6956V5.60352C14.6956 5.37145 14.6034 5.14889 14.4394 4.9848C14.2753 4.8207 14.0527 4.72852 13.8206 4.72852C13.5886 4.72852 13.366 4.8207 13.2019 4.9848C13.0378 5.14889 12.9456 5.37145 12.9456 5.60352V7.48243H12.3623C11.8651 7.47624 11.3716 7.56882 10.9104 7.75482C10.4492 7.94081 10.0295 8.21652 9.67573 8.56594C9.32192 8.91537 9.04101 9.33156 8.84928 9.79039C8.65755 10.2492 8.55882 10.7415 8.55882 11.2388C8.55882 11.7361 8.65755 12.2284 8.84928 12.6872C9.04101 13.1461 9.32192 13.5622 9.67573 13.9117C10.0295 14.2611 10.4492 14.5368 10.9104 14.7228C11.3716 14.9088 11.8651 15.0014 12.3623 14.9952H12.9456V19.0079H12.3623C11.8303 19.0073 11.3202 18.7957 10.9441 18.4195C10.5679 18.0433 10.3563 17.5333 10.3556 17.0013C10.3556 16.7692 10.2634 16.5466 10.0994 16.3825C9.93526 16.2185 9.7127 16.1263 9.48063 16.1263C9.24857 16.1263 9.02601 16.2185 8.86192 16.3825C8.69782 16.5466 8.60563 16.7692 8.60563 17.0013C8.60671 17.9973 9.00285 18.9522 9.70713 19.6564C10.4114 20.3607 11.3663 20.7569 12.3623 20.7579H12.9456V22.6368C12.9456 22.8689 13.0378 23.0915 13.2019 23.2556C13.366 23.4197 13.5886 23.5118 13.8206 23.5118C14.0527 23.5118 14.2753 23.4197 14.4394 23.2556C14.6034 23.0915 14.6956 22.8689 14.6956 22.6368V20.7579H15.279C15.7762 20.7641 16.2697 20.6715 16.7309 20.4855C17.1921 20.2996 17.6117 20.0238 17.9655 19.6744C18.3193 19.325 18.6003 18.9088 18.792 18.45C18.9837 17.9912 19.0824 17.4988 19.0824 17.0016C19.0824 16.5043 18.9837 16.012 18.792 15.5531C18.6003 15.0943 18.3193 14.6781 17.9655 14.3287C17.6117 13.9793 17.1921 13.7036 16.7309 13.5176C16.2697 13.3316 15.7762 13.239 15.279 13.2452ZM12.3582 13.2452C12.0919 13.2497 11.8273 13.2012 11.5799 13.1024C11.3325 13.0036 11.1072 12.8565 10.9172 12.6698C10.7273 12.483 10.5764 12.2603 10.4734 12.0146C10.3704 11.7689 10.3173 11.5052 10.3173 11.2388C10.3173 10.9724 10.3704 10.7087 10.4734 10.463C10.5764 10.2173 10.7273 9.99459 10.9172 9.80784C11.1072 9.62108 11.3325 9.47401 11.5799 9.37522C11.8273 9.27643 12.0919 9.22789 12.3582 9.23243H12.9416V13.2452H12.3582ZM15.279 19.0079H14.6956V14.9952H15.279C15.5453 14.9906 15.8099 15.0392 16.0573 15.138C16.3047 15.2368 16.53 15.3838 16.72 15.5706C16.9099 15.7573 17.0608 15.9801 17.1638 16.2257C17.2668 16.4714 17.3198 16.7352 17.3198 17.0016C17.3198 17.268 17.2668 17.5317 17.1638 17.7774C17.0608 18.0231 16.9099 18.2458 16.72 18.4325C16.53 18.6193 16.3047 18.7664 16.0573 18.8651C15.8099 18.9639 15.5453 19.0125 15.279 19.0079Z" fill="white"/>
</g>
<defs>
<clipPath id="clip0_181_250">
<rect width="28" height="28" fill="white" transform="translate(0 0.120117)"/>
</clipPath>
</defs>
</svg>
