<svg width="24" height="25" viewBox="0 0 24 25" fill="none" xmlns="http://www.w3.org/2000/svg">
<g clip-path="url(#clip0_181_298)">
<path d="M23.6174 18.6534L14.444 2.76454C13.9339 1.88105 13.0203 1.35352 12 1.35352C10.9798 1.35352 10.0661 1.88105 9.55598 2.76454L0.382605 18.6533C-0.127535 19.5369 -0.127535 20.5919 0.382605 21.4754C0.892744 22.359 1.80634 22.8864 2.82662 22.8864H21.1734C22.1936 22.8864 23.1072 22.3589 23.6174 21.4755C24.1276 20.5919 24.1276 19.5369 23.6174 18.6534ZM22.3997 20.7724C22.1437 21.2158 21.6853 21.4804 21.1734 21.4804H2.82662C2.31465 21.4804 1.85621 21.2158 1.60027 20.7724C1.34434 20.3291 1.34434 19.7998 1.60027 19.3564L10.7737 3.46762C11.0297 3.02428 11.4881 2.75962 12 2.75962C12.5119 2.75962 12.9704 3.02428 13.2263 3.46762L22.3997 19.3564C22.6556 19.7998 22.6556 20.3291 22.3997 20.7724Z" fill="white"/>
<path d="M12.7029 8.37061H11.2969V15.401H12.7029V8.37061Z" fill="white"/>
<path d="M12 16.8071C11.4831 16.8071 11.0626 17.2276 11.0626 17.7445C11.0626 18.2614 11.4831 18.6819 12 18.6819C12.5168 18.6819 12.9374 18.2614 12.9374 17.7445C12.9374 17.2276 12.5169 16.8071 12 16.8071Z" fill="white"/>
</g>
<defs>
<clipPath id="clip0_181_298">
<rect width="24" height="24" fill="white" transform="translate(0 0.120117)"/>
</clipPath>
</defs>
</svg>
