<svg width="32" height="20" viewBox="0 0 32 20" fill="none" xmlns="http://www.w3.org/2000/svg">
<path d="M21.016 16.9919H9.47001C9.20401 16.9919 8.99001 16.7779 8.99001 16.5119C8.99001 16.2459 9.20401 16.0319 9.47001 16.0319H20.536V1.48588H1.60001V16.0319H4.02601C4.29201 16.0319 4.50601 16.2459 4.50601 16.5119C4.50601 16.7779 4.29201 16.9919 4.02601 16.9919H1.12001C0.854015 16.9919 0.640015 16.7779 0.640015 16.5119V1.00588C0.640015 0.739879 0.854015 0.525879 1.12001 0.525879H21.016C21.282 0.525879 21.496 0.739879 21.496 1.00588V16.5119C21.496 16.7779 21.28 16.9919 21.016 16.9919Z" fill="white"/>
<path d="M30.88 16.9917H28.76C28.494 16.9917 28.28 16.7777 28.28 16.5117C28.28 16.2457 28.494 16.0317 28.76 16.0317H30.4V11.3417L26.526 4.70165H21.496V16.0297H23.316C23.582 16.0297 23.796 16.2437 23.796 16.5097C23.796 16.7757 23.582 16.9897 23.316 16.9897H21.016C20.75 16.9897 20.536 16.7757 20.536 16.5097V4.22365C20.536 3.95765 20.75 3.74365 21.016 3.74365H26.802C26.972 3.74365 27.13 3.83365 27.216 3.98165L31.294 10.9717C31.336 11.0457 31.36 11.1277 31.36 11.2137V16.5117C31.36 16.7777 31.146 16.9917 30.88 16.9917Z" fill="white"/>
<path d="M30.88 11.6936H23.274C23.008 11.6936 22.794 11.4796 22.794 11.2136V6.36965C22.794 6.10365 23.008 5.88965 23.274 5.88965H28.054C28.32 5.88965 28.534 6.10365 28.534 6.36965C28.534 6.63565 28.32 6.84965 28.054 6.84965H23.754V10.7336H30.88C31.146 10.7336 31.36 10.9476 31.36 11.2136C31.36 11.4796 31.146 11.6936 30.88 11.6936Z" fill="white"/>
<path d="M26.038 19.7141C24.272 19.7141 22.836 18.2781 22.836 16.5121C22.836 14.7461 24.272 13.3101 26.038 13.3101C27.804 13.3101 29.24 14.7461 29.24 16.5121C29.24 18.2781 27.804 19.7141 26.038 19.7141ZM26.038 14.2701C24.802 14.2701 23.796 15.2761 23.796 16.5121C23.796 17.7481 24.802 18.7541 26.038 18.7541C27.274 18.7541 28.28 17.7481 28.28 16.5121C28.28 15.2761 27.274 14.2701 26.038 14.2701Z" fill="white"/>
<path d="M26.038 17.9077C25.268 17.9077 24.642 17.2817 24.642 16.5117C24.642 15.7417 25.268 15.1157 26.038 15.1157C26.808 15.1157 27.434 15.7417 27.434 16.5117C27.434 17.2817 26.808 17.9077 26.038 17.9077ZM26.038 16.0757C25.798 16.0757 25.602 16.2717 25.602 16.5117C25.602 16.7517 25.798 16.9477 26.038 16.9477C26.278 16.9477 26.474 16.7517 26.474 16.5117C26.474 16.2717 26.278 16.0757 26.038 16.0757Z" fill="white"/>
<path d="M6.74802 19.7141C4.98202 19.7141 3.54602 18.2781 3.54602 16.5121C3.54602 14.7461 4.98202 13.3101 6.74802 13.3101C8.51402 13.3101 9.95002 14.7461 9.95002 16.5121C9.95002 18.2781 8.51402 19.7141 6.74802 19.7141ZM6.74802 14.2701C5.51202 14.2701 4.50602 15.2761 4.50602 16.5121C4.50602 17.7481 5.51202 18.7541 6.74802 18.7541C7.98402 18.7541 8.99002 17.7481 8.99002 16.5121C8.99002 15.2761 7.98402 14.2701 6.74802 14.2701Z" fill="white"/>
<path d="M6.74802 17.9077C5.97802 17.9077 5.35202 17.2817 5.35202 16.5117C5.35202 15.7417 5.97802 15.1157 6.74802 15.1157C7.51802 15.1157 8.14402 15.7417 8.14402 16.5117C8.14402 17.2817 7.51802 17.9077 6.74802 17.9077ZM6.74802 16.0757C6.50802 16.0757 6.31202 16.2717 6.31202 16.5117C6.31202 16.7517 6.50802 16.9477 6.74802 16.9477C6.98802 16.9477 7.18402 16.7517 7.18402 16.5117C7.18402 16.2717 6.98802 16.0757 6.74802 16.0757Z" fill="white"/>
<path d="M4.67001 15.232H1.12001C0.854015 15.232 0.640015 15.018 0.640015 14.752C0.640015 14.486 0.854015 14.272 1.12001 14.272H4.67001C4.93601 14.272 5.15001 14.486 5.15001 14.752C5.15001 15.018 4.93601 15.232 4.67001 15.232Z" fill="white"/>
<path d="M21.016 15.232H8.82402C8.55802 15.232 8.34402 15.018 8.34402 14.752C8.34402 14.486 8.55802 14.272 8.82402 14.272H21.016C21.282 14.272 21.496 14.486 21.496 14.752C21.496 15.018 21.28 15.232 21.016 15.232Z" fill="white"/>
</svg>
