<svg width="28" height="29" viewBox="0 0 28 29" fill="none" xmlns="http://www.w3.org/2000/svg">
<path d="M14 20.2451C11.105 20.2451 8.75 17.4971 8.75 14.1201C8.75 10.7431 11.105 7.99512 14 7.99512C16.895 7.99512 19.25 10.7431 19.25 14.1201C19.25 17.4971 16.895 20.2451 14 20.2451ZM14 9.74512C12.0701 9.74512 10.5 11.7079 10.5 14.1201C10.5 16.5323 12.0701 18.4951 14 18.4951C15.9299 18.4951 17.5 16.5323 17.5 14.1201C17.5 11.7079 15.9303 9.74512 14 9.74512Z" fill="white"/>
<path d="M14.0184 26.372C13.4551 26.3716 12.8925 26.3339 12.3342 26.2591C10.0743 25.9494 7.9458 25.015 6.18836 23.5609C4.43091 22.1069 3.11435 20.191 2.38694 18.0291C1.65953 15.8672 1.55016 13.5452 2.07116 11.3245C2.59216 9.10385 3.72283 7.07274 5.33583 5.45995C7.228 3.56589 9.68858 2.34387 12.3411 1.98083C14.9937 1.6178 17.6921 2.13375 20.0236 3.44975C22.3551 4.76575 24.1913 6.80933 25.2513 9.26784C26.3112 11.7264 26.5366 14.4644 25.8928 17.0631C25.6607 17.979 25.1278 18.7904 24.3797 19.3674C23.6315 19.9444 22.7113 20.2535 21.7665 20.2453C20.6359 20.2451 19.5516 19.7963 18.7517 18.9973C17.9517 18.1984 17.5015 17.1146 17.5 15.984V8.87026C17.5 8.6382 17.5922 8.41564 17.7563 8.25154C17.9204 8.08745 18.1429 7.99526 18.375 7.99526C18.6071 7.99526 18.8296 8.08745 18.9937 8.25154C19.1578 8.41564 19.25 8.6382 19.25 8.87026V15.984C19.2506 16.6498 19.5154 17.2882 19.9862 17.759C20.457 18.2298 21.0954 18.4946 21.7612 18.4953C22.3157 18.5038 22.8569 18.3258 23.298 17.9899C23.7391 17.6539 24.0546 17.1795 24.1937 16.6427C24.7039 14.5805 24.5767 12.412 23.8289 10.4236C23.081 8.4352 21.7478 6.72032 20.0051 5.50537C18.2624 4.29042 16.1923 3.63253 14.0679 3.61855C11.9436 3.60457 9.86495 4.23515 8.10643 5.42705C6.34791 6.61896 4.99219 8.31614 4.21826 10.2945C3.44433 12.2729 3.28857 14.4395 3.77155 16.5083C4.25453 18.577 5.35354 20.4507 6.92348 21.8819C8.49343 23.3131 10.4605 24.2345 12.565 24.5245C15.0107 24.8653 17.4979 24.3272 19.5842 23.0061C19.6813 22.9448 19.7896 22.9032 19.9029 22.8836C20.0162 22.8641 20.1322 22.8671 20.2443 22.8925C20.3564 22.9178 20.4624 22.9649 20.5563 23.0312C20.6502 23.0975 20.7301 23.1817 20.7914 23.2788C20.8528 23.376 20.8944 23.4843 20.9139 23.5976C20.9334 23.7109 20.9304 23.8269 20.9051 23.939C20.8798 24.0511 20.8326 24.1571 20.7664 24.251C20.7001 24.3449 20.6159 24.4248 20.5187 24.4861C18.5757 25.7208 16.3205 26.3751 14.0184 26.372Z" fill="white"/>
</svg>
