<svg width="31" height="32" viewBox="0 0 31 32" fill="none" xmlns="http://www.w3.org/2000/svg">
<path d="M30.7646 14.5879L25.0448 9.70341C25.0515 9.67 25.0582 9.63659 25.0649 9.5965V3.20856C25.0582 2.82769 24.7575 2.52032 24.3767 2.50696H21.1827C20.8152 2.50696 20.5145 2.83438 20.5145 3.20856V5.85461L15.9374 1.95236C15.6901 1.73854 15.3226 1.73854 15.0687 1.95236L0.241479 14.5812C-0.0458445 14.8151 -0.0792542 15.2361 0.154614 15.5234C0.388482 15.8107 0.809444 15.8441 1.09677 15.6102C1.10345 15.6036 1.10345 15.6036 1.11013 15.5969L15.503 3.3422L20.6548 7.73224L23.7352 10.3516L29.9026 15.6036C30.1833 15.8441 30.6042 15.8107 30.8448 15.5301C31.0786 15.2494 31.0452 14.8285 30.7646 14.5879ZM23.7218 8.57416L21.8509 6.99722V3.85003H23.7218V8.57416Z" fill="white"/>
<path d="M27.818 15.9377L25.9404 14.334L15.9375 5.78781C15.6903 5.57399 15.3228 5.57399 15.0688 5.78781L5.06598 14.334L3.18835 15.9377C2.90771 16.1782 2.8743 16.5992 3.11485 16.8798C3.34872 17.1605 3.763 17.1939 4.03696 16.96L4.04364 16.9533L4.87888 16.2317V28.7603C4.88556 29.1345 5.19293 29.4419 5.56712 29.4486H25.4325C25.8067 29.4419 26.1141 29.1412 26.1208 28.7603V16.2317L26.956 16.9533C27.0763 17.0536 27.2233 17.1137 27.3837 17.1137C27.5774 17.1137 27.7645 17.0268 27.8915 16.8798C28.1387 16.5925 28.0986 16.1715 27.818 15.9377ZM18.1759 28.1055H12.8304V20.889H18.1759V28.1055ZM19.5123 28.1055V20.2408C19.5123 19.8733 19.2384 19.5526 18.8709 19.5526H12.1355C11.768 19.5526 11.494 19.8733 11.494 20.2408V28.1055H6.21527V15.0891L15.5032 7.17765L24.7911 15.0891V28.1055H19.5123Z" fill="white"/>
</svg>
