<svg width="29" height="30" viewBox="0 0 29 30" fill="none" xmlns="http://www.w3.org/2000/svg">
<g clip-path="url(#clip0_181_178)">
<path d="M15.477 18.3218H13.819C13.2161 18.3218 12.7277 17.8334 12.7277 17.2305C12.7277 16.6276 13.2161 16.1393 13.819 16.1393H16.7371C17.135 16.1393 17.4606 15.8137 17.4606 15.4158C17.4606 15.0178 17.135 14.6923 16.7371 14.6923H15.3685V13.6854C15.3685 13.2875 15.0429 12.9619 14.645 12.9619C14.2471 12.9619 13.9215 13.2875 13.9215 13.6854V14.6923H13.819C12.4203 14.6923 11.2808 15.8318 11.2808 17.2305C11.2808 18.6293 12.4203 19.7688 13.819 19.7688H15.477C16.0799 19.7688 16.5683 20.2571 16.5683 20.86C16.5683 21.463 16.0799 21.9513 15.477 21.9513H12.5047C12.1067 21.9513 11.7812 22.2769 11.7812 22.6748C11.7812 23.0727 12.1067 23.3983 12.5047 23.3983H13.9275V24.4293C13.9275 24.8272 14.2531 25.1528 14.651 25.1528C15.049 25.1528 15.3745 24.8272 15.3745 24.4293V23.3983H15.4951C15.5011 23.3983 15.5072 23.3983 15.5132 23.3983C16.8999 23.3802 18.0153 22.2467 18.0153 20.86C18.0153 19.4613 16.8758 18.3218 15.477 18.3218Z" fill="white"/>
<path d="M25.5213 16.6821C24.7616 14.9336 23.7126 13.2395 22.3862 11.6538C20.7824 9.72448 19.1847 8.43425 18.3708 7.83737L21.4456 2.13384C21.5963 1.85047 21.5481 1.50078 21.313 1.27771C20.5171 0.499951 19.6731 0.120117 18.7325 0.120117C17.8704 0.120117 17.0805 0.445689 16.3932 0.735086C15.8506 0.958163 15.3381 1.17521 14.9221 1.17521C14.7955 1.17521 14.687 1.15712 14.5785 1.11492C13.1435 0.590387 12.0402 0.264816 10.9731 0.264816C9.62253 0.264816 8.47097 0.807435 7.34353 1.96502C7.10839 2.20619 7.07222 2.58602 7.25912 2.86939L10.5751 7.87958C9.75517 8.48852 8.1876 9.76669 6.61401 11.6538C5.29363 13.2395 4.23854 14.9336 3.47887 16.6821C2.52627 18.8827 2.04395 21.1798 2.04395 23.507C2.04395 26.6 4.56411 29.1201 7.65704 29.1201H21.3431C24.436 29.1201 26.9562 26.6 26.9562 23.507C26.9562 21.1798 26.4739 18.8827 25.5213 16.6821ZM8.80257 2.56793C9.50195 1.96502 10.1712 1.69974 10.9731 1.69974C11.8292 1.69974 12.7938 1.98914 14.078 2.46544C14.3433 2.56191 14.6267 2.61014 14.9161 2.61014C15.6215 2.61014 16.2968 2.3328 16.9419 2.06149C17.5629 1.80224 18.1537 1.55504 18.7265 1.55504C19.0038 1.55504 19.3957 1.60328 19.8901 1.95297L16.9961 7.33093H11.9558L8.80257 2.56793ZM21.3431 27.6731H7.65704C5.35995 27.6731 3.49093 25.8041 3.49093 23.507C3.49093 19.6424 4.90777 15.9767 7.69322 12.6124C9.45372 10.4841 11.2444 9.16378 11.787 8.77791H17.2011C17.7498 9.15775 19.5344 10.4841 21.2949 12.6124C24.0864 15.9767 25.4972 19.6363 25.4972 23.507C25.5092 25.8041 23.6402 27.6731 21.3431 27.6731Z" fill="white"/>
</g>
<defs>
<clipPath id="clip0_181_178">
<rect width="29" height="29" fill="white" transform="translate(0 0.120117)"/>
</clipPath>
</defs>
</svg>
