<svg width="21" height="20" viewBox="0 0 21 20" fill="none" xmlns="http://www.w3.org/2000/svg">
<path d="M17.91 1.25H2.90613C2.21863 1.25 1.66003 1.81641 1.66003 2.51172V17.4883C1.66003 18.1836 2.21863 18.75 2.90613 18.75H17.91C18.5975 18.75 19.16 18.1836 19.16 17.4883V2.51172C19.16 1.81641 18.5975 1.25 17.91 1.25ZM6.9491 16.25H4.35535V7.89844H6.953V16.25H6.9491ZM5.65222 6.75781C4.82019 6.75781 4.14832 6.08203 4.14832 5.25391C4.14832 4.42578 4.82019 3.75 5.65222 3.75C6.48035 3.75 7.15613 4.42578 7.15613 5.25391C7.15613 6.08594 6.48425 6.75781 5.65222 6.75781ZM16.6718 16.25H14.078V12.1875C14.078 11.2188 14.0585 9.97266 12.7303 9.97266C11.3788 9.97266 11.1718 11.0273 11.1718 12.1172V16.25H8.578V7.89844H11.0663V9.03906H11.1014C11.4491 8.38281 12.2968 7.69141 13.5585 7.69141C16.1835 7.69141 16.6718 9.42188 16.6718 11.6719V16.25Z" fill="white"/>
</svg>
