<svg width="30" height="31" viewBox="0 0 30 31" fill="none" xmlns="http://www.w3.org/2000/svg">
<g clip-path="url(#clip0_181_172)">
<path d="M25.0078 19.8009C23.2057 18.891 21.2256 18.2645 19.2757 17.871C18.8146 17.3761 18.4974 16.7646 18.3583 16.1025C19.5653 15.1586 20.4893 13.7427 20.9956 12.0561C22.3934 11.8444 22.757 9.69643 22.2025 8.52022C24.7481 -2.63498 5.31758 -2.65813 7.80272 8.4959C7.21936 9.67152 7.58235 11.8485 8.99645 12.0572C9.49602 13.7438 10.4267 15.1598 11.6337 16.1037C11.4893 16.7949 11.1521 17.431 10.661 17.9385C9.73813 18.0998 9.17 18.2358 9.15782 18.2491C5.3767 19.2899 2.02127 20.4596 2.48194 25.1141C2.28998 31.781 27.6996 31.7872 27.5179 25.1143C27.7176 23.0142 27.0396 20.7585 25.0078 19.8009ZM15.0126 1.03732C19.3989 0.976914 21.9822 3.86184 21.4133 7.75533C21.154 7.63041 20.8425 7.62496 20.5634 7.68789C20.4529 7.35631 20.2727 6.82463 19.9632 5.96143C19.9239 5.88496 19.8596 5.81576 19.8085 5.74592C15.8558 3.116 14.2057 7.99246 10.6566 5.73156C10.6356 5.71832 10.6212 5.70613 10.6024 5.69178C10.4212 5.64555 10.218 5.67625 10.1029 5.8399C9.73549 6.57971 9.54248 7.39967 9.4209 7.68795C9.15284 7.61934 8.8587 7.62502 8.60522 7.74209C8.03622 3.85188 10.6277 0.978144 15.0126 1.03732ZM9.76573 11.4371C9.54061 10.8677 9.16702 11.2726 8.92239 11.0856C8.3675 10.7085 8.22957 8.77996 8.94237 8.57764C9.31297 8.4557 9.64034 8.92797 9.98791 8.65721C10.0853 8.58051 10.1504 8.47006 10.1703 8.34772C10.2035 8.19848 10.4389 7.511 10.6964 6.80031C14.7417 8.6568 15.6118 4.42492 19.1674 6.41787C19.6361 7.56232 19.6463 8.16936 20.0029 8.65615C20.3493 8.92855 20.679 8.45148 21.0487 8.57652C21.3327 8.65609 21.6013 9.19656 21.535 9.925C21.4797 10.5318 21.2509 10.9197 21.0696 11.0845C20.8064 11.2554 20.4065 10.8694 20.2263 11.436C18.6143 17.9853 11.3713 17.9869 9.76573 11.4371ZM12.4439 16.6441C14.027 17.5431 15.9662 17.5431 17.5493 16.6441C17.7453 17.3245 18.0985 17.9492 18.5805 18.4679C18.3451 19.2095 16.6507 20.6133 14.9993 21.6378C13.3414 20.6132 11.6469 19.2062 11.4171 18.4679C11.8969 17.9484 12.2486 17.3238 12.4439 16.6441ZM3.39254 25.114C3.05463 21.4028 5.08912 20.4824 8.20725 19.4637C8.06358 20.0592 7.95289 20.6621 7.87567 21.2697C5.94213 21.8532 6.04666 23.6324 6.35036 25.2632C5.92602 25.8401 6.64327 26.6257 7.25563 26.248C7.71213 25.9988 7.69461 25.2953 7.23459 25.0609C7.06286 23.8658 6.73584 22.3884 8.37243 22.1453C9.92311 22.0768 9.95188 23.5789 10.0697 24.715C9.67203 25.0587 9.85139 25.7441 10.3583 25.8663C11.0251 26.0692 11.5295 25.1564 10.9794 24.715C10.8791 23.181 10.6399 21.4701 8.79418 21.2223C8.89426 20.5287 9.03787 19.8421 9.22414 19.1664C9.51975 19.0888 9.65586 19.0441 10.6135 18.8691C11.2005 20.2452 13.6432 21.8645 14.5462 22.4171V29.2015C9.23756 28.984 3.39694 27.8982 3.39254 25.114ZM26.6038 25.114C26.6024 27.8927 20.7632 28.9854 15.448 29.2014V22.4171C16.3654 21.8501 18.8413 20.2064 19.395 18.8293C19.8428 18.9142 20.2756 19.0253 20.7026 19.1388C20.9622 20.0883 21.1382 21.0588 21.2287 22.0391C19.1149 22.7999 20.1929 25.9624 22.3311 25.274C23.9477 24.7789 23.7943 22.2907 22.1395 21.986C22.059 21.1299 21.919 20.2805 21.7206 19.4438C24.8547 20.4558 26.9539 21.3811 26.6038 25.114ZM21.7814 22.8493C22.8199 22.8596 22.8225 24.4353 21.7807 24.4402C20.7382 24.433 20.7451 22.8578 21.7837 22.8493H21.7814Z" fill="white"/>
</g>
<defs>
<clipPath id="clip0_181_172">
<rect width="30" height="30" fill="white" transform="translate(0 0.120117)"/>
</clipPath>
</defs>
</svg>
