<svg width="28" height="29" viewBox="0 0 28 29" fill="none" xmlns="http://www.w3.org/2000/svg">
<g clip-path="url(#clip0_181_98)">
<path d="M16.8711 16.2256C16.8711 17.8087 18.159 19.0967 19.7422 19.0967H25.1289C26.7121 19.0967 28 17.8087 28 16.2256C28 16.1643 27.9863 16.1039 27.9599 16.0486L23.0165 5.71613C23.4028 5.50831 23.666 5.10029 23.666 4.63178C23.666 4.31689 23.547 4.02934 23.3517 3.81147C23.547 3.59359 23.666 3.30605 23.666 2.99116C23.666 2.31265 23.1141 1.76069 22.4355 1.76069H16.5935C16.1319 0.791625 15.143 0.120117 14 0.120117C12.857 0.120117 11.8681 0.791625 11.4065 1.76074H5.56445C4.88595 1.76074 4.33398 2.3127 4.33398 2.99121C4.33398 3.3061 4.45304 3.59365 4.64827 3.81152C4.45298 4.0294 4.33398 4.31695 4.33398 4.63184C4.33398 5.10029 4.5972 5.50837 4.98345 5.71618L0.0401406 16.0486C0.0137266 16.1039 0 16.1643 0 16.2256C0 17.8087 1.28795 19.0967 2.87109 19.0967H8.25781C9.84096 19.0967 11.1289 17.8087 11.1289 16.2256C11.1289 16.1643 11.1152 16.1039 11.0888 16.0486L6.14545 5.71613C6.53171 5.50831 6.79492 5.10029 6.79492 4.63178C6.79492 4.48801 6.76988 4.34998 6.72437 4.22162H11.4065C11.5439 4.5101 11.7282 4.77195 11.9492 4.99775V6.75311C11.4719 6.92242 11.1289 7.3783 11.1289 7.91303C11.1289 8.44777 11.4719 8.90364 11.9492 9.07295V19.917H9.07812C8.39962 19.917 7.84766 20.469 7.84766 21.1475C7.84766 21.6822 8.19055 22.1384 8.66797 22.3077V23.1982H5.56445C5.4273 23.1982 5.29927 23.2668 5.2232 23.3809L4.03758 25.1593C3.82889 25.4723 3.47971 25.6592 3.10352 25.6592C1.97269 25.6592 1.05273 26.5791 1.05273 27.71C1.05273 27.9365 1.23637 28.1201 1.46289 28.1201H26.5371C26.7636 28.1201 26.9473 27.9365 26.9473 27.71C26.9473 26.5791 26.0273 25.6592 24.8965 25.6592C24.5203 25.6592 24.1711 25.4723 23.9624 25.1593L22.7768 23.3809C22.7007 23.2668 22.5727 23.1982 22.4355 23.1982H19.332V22.3074C19.8094 22.1381 20.1523 21.6822 20.1523 21.1475C20.1523 20.469 19.6004 19.917 18.9219 19.917H16.0508V9.07301C16.5281 8.9037 16.8711 8.44782 16.8711 7.91309C16.8711 7.37835 16.5281 6.92248 16.0508 6.75316V4.9978C16.2718 4.77195 16.4561 4.5101 16.5935 4.22168H21.2756C21.2301 4.35003 21.2051 4.48806 21.2051 4.63184C21.2051 5.10029 21.4683 5.50837 21.8545 5.71618L16.9112 16.0486C16.8848 16.1039 16.8711 16.1643 16.8711 16.2256ZM25.1289 18.2764H19.7422C18.7519 18.2764 17.9236 17.5706 17.733 16.6357H27.1381C26.9475 17.5706 26.1192 18.2764 25.1289 18.2764ZM17.9321 15.8154L22.4355 6.40251L26.939 15.8154H17.9321ZM5.56445 6.40251L10.0679 15.8154H1.06105L5.56445 6.40251ZM8.25781 18.2764H2.87109C1.88076 18.2764 1.05246 17.5706 0.86193 16.6357H10.267C10.0764 17.5706 9.24815 18.2764 8.25781 18.2764ZM5.97461 4.63184C5.97461 4.85802 5.79064 5.04199 5.56445 5.04199C5.33827 5.04199 5.1543 4.85802 5.1543 4.63184C5.1543 4.40565 5.33827 4.22168 5.56445 4.22168C5.79064 4.22168 5.97461 4.40565 5.97461 4.63184ZM5.56445 3.40137C5.33827 3.40137 5.1543 3.2174 5.1543 2.99121C5.1543 2.76502 5.33827 2.58105 5.56445 2.58105H11.1587C11.1394 2.71509 11.1289 2.85192 11.1289 2.99121C11.1289 3.1305 11.1394 3.26733 11.1587 3.40137H5.56445ZM12.7695 6.68262V5.58471C13.1427 5.76245 13.5599 5.8623 14 5.8623C14.4401 5.8623 14.8573 5.7625 15.2305 5.58471V6.68262H12.7695ZM26.0567 27.2998H1.94332C2.11258 26.8224 2.56878 26.4795 3.10352 26.4795H24.8965C25.4312 26.4795 25.8874 26.8224 26.0567 27.2998ZM23.2799 25.6143C23.2901 25.6296 23.3012 25.6442 23.3119 25.6592H4.68814C4.69875 25.6442 4.70991 25.6296 4.72013 25.6143L5.78397 24.0186H22.2161L23.2799 25.6143ZM19.332 21.1475C19.332 21.3736 19.1481 21.5576 18.9219 21.5576H10.7188C10.4922 21.5576 10.3086 21.7413 10.3086 21.9678C10.3086 22.1943 10.4922 22.3779 10.7188 22.3779H18.5117V23.1982H9.48828V21.9678C9.48828 21.7413 9.30464 21.5576 9.07812 21.5576C8.85194 21.5576 8.66797 21.3736 8.66797 21.1475C8.66797 20.9213 8.85194 20.7373 9.07812 20.7373H18.9219C19.1481 20.7373 19.332 20.9213 19.332 21.1475ZM12.7695 19.917V9.14355H15.2305V19.917H12.7695ZM15.6406 8.32324H12.3594C12.1332 8.32324 11.9492 8.13927 11.9492 7.91309C11.9492 7.6869 12.1332 7.50293 12.3594 7.50293H15.6406C15.8668 7.50293 16.0508 7.6869 16.0508 7.91309C16.0508 8.13927 15.8668 8.32324 15.6406 8.32324ZM14 5.04199C12.8692 5.04199 11.9492 4.12204 11.9492 2.99121C11.9492 1.86038 12.8692 0.94043 14 0.94043C15.1308 0.94043 16.0508 1.86038 16.0508 2.99121C16.0508 4.12204 15.1308 5.04199 14 5.04199ZM16.8413 2.58105H22.4355C22.6617 2.58105 22.8457 2.76502 22.8457 2.99121C22.8457 3.2174 22.6617 3.40137 22.4355 3.40137H16.8413C16.8606 3.26733 16.8711 3.1305 16.8711 2.99121C16.8711 2.85192 16.8606 2.71509 16.8413 2.58105ZM22.8457 4.63184C22.8457 4.85802 22.6617 5.04199 22.4355 5.04199C22.2094 5.04199 22.0254 4.85802 22.0254 4.63184C22.0254 4.40565 22.2094 4.22168 22.4355 4.22168C22.6617 4.22168 22.8457 4.40565 22.8457 4.63184Z" fill="white"/>
<path d="M14 1.76074C13.3215 1.76074 12.7695 2.3127 12.7695 2.99121C12.7695 3.66972 13.3215 4.22168 14 4.22168C14.6785 4.22168 15.2305 3.66972 15.2305 2.99121C15.2305 2.3127 14.6785 1.76074 14 1.76074ZM14 3.40137C13.7738 3.40137 13.5898 3.2174 13.5898 2.99121C13.5898 2.76502 13.7738 2.58105 14 2.58105C14.2262 2.58105 14.4102 2.76502 14.4102 2.99121C14.4102 3.2174 14.2262 3.40137 14 3.40137Z" fill="white"/>
</g>
<defs>
<clipPath id="clip0_181_98">
<rect width="28" height="28" fill="white" transform="translate(0 0.120117)"/>
</clipPath>
</defs>
</svg>
