<svg width="29" height="30" viewBox="0 0 29 30" fill="none" xmlns="http://www.w3.org/2000/svg">
<g clip-path="url(#clip0_181_156)">
<path d="M24.9157 14.2931C24.9943 13.7192 25.0455 13.1686 25.0455 12.6429C25.0455 5.73786 19.4278 0.120117 12.5228 0.120117C5.61775 0.120117 0 5.73786 0 12.6429C0 19.5479 5.61775 25.1656 12.5228 25.1656C13.0515 25.1656 13.6017 25.1148 14.173 25.0357C15.5233 27.4685 18.1167 29.1202 21.091 29.1202C25.4523 29.1202 29.0001 25.5724 29.0001 21.2111C29 18.2368 27.3484 15.6434 24.9157 14.2931ZM13.619 23.7813C13.2427 23.8215 12.8764 23.8474 12.5228 23.8474C6.34507 23.8474 1.31822 18.8212 1.31822 12.6429C1.31822 6.46457 6.34501 1.43828 12.5228 1.43828C18.7005 1.43828 23.7273 6.46451 23.7273 12.6429C23.7273 12.9948 23.7009 13.3614 23.6605 13.7389C22.8535 13.4605 21.9913 13.3019 21.0909 13.3019C16.7296 13.3019 13.1818 16.8497 13.1818 21.211C13.1818 22.1117 13.3404 22.9741 13.619 23.7813ZM21.0909 27.802C17.4569 27.802 14.5 24.8451 14.5 21.211C14.5 17.577 17.4569 14.6201 21.0909 14.6201C24.7249 14.6201 27.6818 17.577 27.6818 21.211C27.6818 24.845 24.7249 27.802 21.0909 27.802Z" fill="white"/>
<path d="M20.7615 18.5749H23.0683C23.4326 18.5749 23.7274 18.2801 23.7274 17.9158C23.7274 17.5515 23.4326 17.2567 23.0683 17.2567H21.7501V16.5976C21.7501 16.2333 21.4553 15.9385 21.091 15.9385C20.7267 15.9385 20.4319 16.2333 20.4319 16.5976V17.29C19.3168 17.4516 18.4546 18.4044 18.4546 19.5635C18.4547 20.8354 19.4896 21.8704 20.7615 21.8704H21.4206C21.9651 21.8704 22.4092 22.3138 22.4092 22.859C22.4092 23.4042 21.9651 23.8476 21.4206 23.8476H19.1138C18.7495 23.8476 18.4547 24.1424 18.4547 24.5067C18.4547 24.8711 18.7495 25.1659 19.1138 25.1659H20.4319V25.8249C20.4319 26.1892 20.7267 26.484 21.091 26.484C21.4554 26.484 21.7501 26.1892 21.7501 25.8249V25.1325C22.8651 24.9709 23.7274 24.0181 23.7274 22.859C23.7274 21.5872 22.6924 20.5522 21.4206 20.5522H20.7615C20.2169 20.5522 19.7728 20.1087 19.7728 19.5636C19.7728 19.0184 20.217 18.5749 20.7615 18.5749Z" fill="white"/>
<path d="M12.5229 4.07471C12.1585 4.07471 11.8637 4.36951 11.8637 4.73382V12.37L8.10229 16.1314C7.84481 16.3889 7.84481 16.806 8.10229 17.0634C8.231 17.1921 8.39968 17.2565 8.56831 17.2565C8.73693 17.2565 8.90556 17.1921 9.03433 17.0634L12.9889 13.1089C13.1125 12.9853 13.182 12.818 13.182 12.6429V4.73376C13.1819 4.36951 12.8871 4.07471 12.5229 4.07471Z" fill="white"/>
</g>
<defs>
<clipPath id="clip0_181_156">
<rect width="29" height="29" fill="white" transform="translate(0 0.120117)"/>
</clipPath>
</defs>
</svg>
