<svg width="34" height="35" viewBox="0 0 34 35" fill="none" xmlns="http://www.w3.org/2000/svg">
<path d="M17 30.9326C14.2682 30.9326 11.5976 30.1225 9.32619 28.6048C7.05474 27.0871 5.28436 24.9298 4.23892 22.4059C3.19348 19.882 2.91995 17.1048 3.45291 14.4254C3.98587 11.7461 5.30138 9.28492 7.23309 7.35321C9.16481 5.4215 11.626 4.10599 14.3053 3.57303C16.9847 3.04007 19.7619 3.3136 22.2858 4.35904C24.8097 5.40447 26.9669 7.17486 28.4847 9.44631C30.0024 11.7178 30.8125 14.3883 30.8125 17.1201C30.8083 20.7821 29.3517 24.2929 26.7623 26.8824C24.1728 29.4718 20.662 30.9284 17 30.9326ZM17 5.43262C14.6884 5.43262 12.4288 6.11808 10.5068 7.40232C8.58478 8.68656 7.08676 10.5119 6.20216 12.6475C5.31756 14.7831 5.08611 17.1331 5.53708 19.4002C5.98804 21.6674 7.10117 23.7499 8.7357 25.3844C10.3702 27.019 12.4527 28.1321 14.7199 28.583C16.987 29.034 19.337 28.8026 21.4726 27.918C23.6082 27.0334 25.4336 25.5354 26.7178 23.6133C28.002 21.6914 28.6875 19.4317 28.6875 17.1201C28.6839 14.0215 27.4513 11.0509 25.2603 8.85985C23.0692 6.66881 20.0986 5.43628 17 5.43262Z" fill="white"/>
<path d="M13.8125 23.4951C13.5307 23.4951 13.2605 23.3832 13.0612 23.1839C12.8619 22.9847 12.75 22.7144 12.75 22.4326V11.8076C12.75 11.5258 12.8619 11.2556 13.0612 11.0563C13.2605 10.8571 13.5307 10.7451 13.8125 10.7451H17C18.1272 10.7451 19.2082 11.1929 20.0052 11.9899C20.8022 12.7869 21.25 13.8679 21.25 14.9951C21.25 16.1223 20.8022 17.2033 20.0052 18.0003C19.2082 18.7973 18.1272 19.2451 17 19.2451H14.875V22.4326C14.875 22.7144 14.7631 22.9847 14.5638 23.1839C14.3645 23.3832 14.0943 23.4951 13.8125 23.4951ZM14.875 17.1201H17C17.5636 17.1201 18.1041 16.8962 18.5026 16.4977C18.9011 16.0992 19.125 15.5587 19.125 14.9951C19.125 14.4315 18.9011 13.891 18.5026 13.4925C18.1041 13.094 17.5636 12.8701 17 12.8701H14.875V17.1201Z" fill="white"/>
<path d="M16.15 18.8201C15.9809 18.5947 15.9083 18.3113 15.9482 18.0324C15.988 17.7534 16.1371 17.5017 16.3625 17.3326C16.5879 17.1635 16.8713 17.0909 17.1503 17.1308C17.4292 17.1707 17.6809 17.3197 17.85 17.5451L21.0375 21.7951C21.1212 21.9067 21.1821 22.0338 21.2168 22.1689C21.2514 22.3041 21.2591 22.4448 21.2393 22.5829C21.2196 22.721 21.1728 22.8539 21.1018 22.974C21.0307 23.094 20.9366 23.1989 20.825 23.2826C20.7134 23.3663 20.5864 23.4273 20.4512 23.4619C20.316 23.4965 20.1754 23.5042 20.0372 23.4844C19.8991 23.4647 19.7662 23.418 19.6462 23.3469C19.5261 23.2758 19.4212 23.1817 19.3375 23.0701L16.15 18.8201Z" fill="white"/>
</svg>
