<svg width="26" height="27" viewBox="0 0 26 27" fill="none" xmlns="http://www.w3.org/2000/svg">
<g clip-path="url(#clip0_181_164)">
<path d="M14.5345 26.1201H11.4655C9.44333 26.1201 7.79817 24.475 7.79817 22.4528V18.3219H3.66732C1.64516 18.3219 0 16.6768 0 14.6546V11.5856C0 9.56345 1.64516 7.91829 3.66732 7.91829H7.79822V3.78744C7.79817 1.76528 9.44333 0.120117 11.4655 0.120117H14.5345C16.5567 0.120117 18.2018 1.76528 18.2018 3.78744V7.91834H22.3327C24.3549 7.91834 26 9.5635 26 11.5857V14.6547C26 16.6768 24.3549 18.322 22.3327 18.322H17.1862C16.6253 18.322 16.1706 17.8673 16.1706 17.3064C16.1706 16.7454 16.6253 16.2907 17.1862 16.2907H22.3327C23.2349 16.2907 23.9688 15.5568 23.9688 14.6547V11.5857C23.9688 10.6835 23.2349 9.94959 22.3327 9.94959H17.1862C16.6253 9.94959 16.1706 9.49489 16.1706 8.93396V3.78744C16.1706 2.88531 15.4366 2.15137 14.5345 2.15137H11.4655C10.5634 2.15137 9.82942 2.88531 9.82942 3.78744V8.93396C9.82942 9.49489 9.37473 9.94959 8.8138 9.94959H3.66732C2.76519 9.94954 2.03125 10.6835 2.03125 11.5856V14.6546C2.03125 15.5568 2.76519 16.2907 3.66732 16.2907H8.81385C9.37478 16.2907 9.82947 16.7454 9.82947 17.3063V22.4528C9.82947 23.355 10.5634 24.0889 11.4655 24.0889H14.5346C15.4367 24.0889 16.1706 23.355 16.1706 22.4528V22.4337C16.1706 21.8727 16.6253 21.418 17.1863 21.418C17.7472 21.418 18.2019 21.8727 18.2019 22.4337V22.4528C18.2018 24.475 16.5567 26.1201 14.5345 26.1201Z" fill="white"/>
</g>
<defs>
<clipPath id="clip0_181_164">
<rect width="26" height="26" fill="white" transform="translate(0 0.120117)"/>
</clipPath>
</defs>
</svg>
