<svg width="30" height="31" viewBox="0 0 30 31" fill="none" xmlns="http://www.w3.org/2000/svg">
<g clip-path="url(#clip0_181_132)">
<path d="M10.2544 3.62842L9.43359 3.17608C10.0177 2.22848 10.8377 1.44873 11.8135 0.913094C12.7893 0.377458 13.8874 0.104283 15.0005 0.120294C16.1135 0.104283 17.2116 0.377458 18.1874 0.913094C19.1632 1.44873 19.9833 2.22848 20.5673 3.17608L19.7461 3.62701C19.2428 2.8268 18.5416 2.16992 17.7103 1.71986C16.879 1.2698 15.9457 1.04176 15.0005 1.05779C14.055 1.04169 13.1215 1.26984 12.29 1.72018C11.4586 2.17051 10.7574 2.82778 10.2544 3.62842Z" fill="white"/>
<path d="M12.094 16.3122C9.47367 12.2054 8.12461 9.53264 7.96899 8.14045C7.96477 8.10401 7.96477 8.0672 7.96899 8.03076C8.01867 7.63045 8.48695 4.09326 9.50883 3.06998C9.56201 3.01678 9.6272 2.97716 9.69892 2.95447C9.77063 2.93177 9.84675 2.92666 9.92085 2.93958C9.99495 2.9525 10.0649 2.98306 10.1247 3.02868C10.1845 3.0743 10.2324 3.13365 10.2645 3.2017C11.8175 6.25201 13.5491 9.20808 15.4502 12.0545L14.6637 12.5636C11.9576 8.38232 10.4449 5.60826 9.79852 4.36045C9.35877 5.56459 9.06067 6.81582 8.91024 8.08889C9.0293 8.96404 9.82758 11.0134 12.8862 15.8069L12.094 16.3122Z" fill="white"/>
<path d="M22.0313 30.1203C21.9585 30.1203 21.8867 30.1034 21.8216 30.0708C21.7565 30.0383 21.6999 29.991 21.6563 29.9328C21.6202 29.8859 18.0333 25.1389 14.5781 20.0698L15.3534 19.5425C18.0905 23.5615 20.9128 27.3767 21.9689 28.7904L23.8125 25.4722C21.4219 22.3442 19.1878 19.2669 17.1689 16.3222L17.9423 15.7925C20.0048 18.7995 22.2933 21.9467 24.7467 25.1478C24.8022 25.2202 24.8354 25.3073 24.8421 25.3983C24.8489 25.4893 24.8289 25.5803 24.7847 25.6601L22.4409 29.8789C22.4032 29.9468 22.3492 30.0044 22.2838 30.0463C22.2183 30.0881 22.1434 30.1131 22.0659 30.1189C22.0533 30.1203 22.042 30.1203 22.0313 30.1203Z" fill="white"/>
<path d="M11.6993 6.34887L10.7998 6.08543C10.8256 5.99449 11.4729 3.87012 15.0003 3.87012C18.5276 3.87012 19.175 5.99449 19.2007 6.08543L18.2998 6.3423C18.2815 6.28559 17.7818 4.80762 15.0003 4.80762C12.2187 4.80762 11.719 6.28559 11.6993 6.34887Z" fill="white"/>
<path d="M7.96899 30.1201C7.95821 30.1201 7.94696 30.1201 7.93618 30.1201C7.85868 30.1144 7.78383 30.0894 7.71837 30.0475C7.65291 30.0056 7.59889 29.9481 7.56118 29.8801L5.21743 25.6614C5.1732 25.5816 5.15323 25.4906 5.15997 25.3996C5.16672 25.3085 5.19988 25.2215 5.2554 25.149C15.8707 11.2984 19.6952 3.28092 19.7346 3.2017C19.7667 3.13365 19.8146 3.0743 19.8744 3.02868C19.9342 2.98306 20.0041 2.9525 20.0782 2.93958C20.1523 2.92666 20.2284 2.93177 20.3002 2.95447C20.3719 2.97716 20.4371 3.01678 20.4902 3.06998C21.5121 4.09186 21.9804 7.63045 22.0301 8.03076C22.0343 8.0672 22.0343 8.10401 22.0301 8.14045C21.551 12.438 8.88165 29.222 8.34399 29.9326C8.30033 29.9909 8.24371 30.0381 8.17862 30.0707C8.11354 30.1032 8.04176 30.1201 7.96899 30.1201ZM6.18399 25.4739L8.02852 28.7936C12.6124 22.6914 20.659 11.2989 21.0902 8.08889C20.9399 6.81359 20.641 5.56025 20.1996 4.35436C19.0071 6.65029 14.8896 14.0889 6.18399 25.4739Z" fill="white"/>
</g>
<defs>
<clipPath id="clip0_181_132">
<rect width="30" height="30" fill="white" transform="translate(0 0.120117)"/>
</clipPath>
</defs>
</svg>
