<svg width="22" height="23" viewBox="0 0 22 23" fill="none" xmlns="http://www.w3.org/2000/svg">
<g clip-path="url(#clip0_181_117)">
<path d="M2.08621 21.1718C1.79486 21.1718 1.50397 21.0607 1.28168 20.8384C0.837104 20.3943 0.837104 19.6736 1.28168 19.2294L19.1093 1.40174C19.5538 0.957166 20.2737 0.957166 20.7183 1.40174C21.1629 1.84587 21.1629 2.56656 20.7183 3.01074L2.89074 20.8384C2.66845 21.0607 2.37755 21.1718 2.08621 21.1718ZM22 16.8097C22 13.8814 19.6179 11.4994 16.6897 11.4994C13.7614 11.4994 11.3793 13.8814 11.3793 16.8097C11.3793 19.738 13.7614 22.1201 16.6897 22.1201C19.6179 22.1201 22 19.738 22 16.8097ZM19.7242 16.8097C19.7242 18.4829 18.3629 19.8442 16.6897 19.8442C15.0166 19.8442 13.6552 18.4829 13.6552 16.8097C13.6552 15.1366 15.0166 13.7753 16.6897 13.7753C18.3629 13.7753 19.7242 15.1366 19.7242 16.8097ZM10.6207 5.43046C10.6207 2.50219 8.23862 0.120117 5.31034 0.120117C2.38207 0.120117 0 2.50219 0 5.43046C0 8.35874 2.38207 10.7408 5.31034 10.7408C8.23862 10.7408 10.6207 8.35874 10.6207 5.43046ZM8.34483 5.43046C8.34483 7.10361 6.98349 8.46494 5.31034 8.46494C3.6372 8.46494 2.27586 7.10361 2.27586 5.43046C2.27586 3.75731 3.6372 2.39598 5.31034 2.39598C6.98349 2.39598 8.34483 3.75737 8.34483 5.43046Z" fill="white"/>
</g>
<defs>
<clipPath id="clip0_181_117">
<rect width="22" height="22" fill="white" transform="translate(0 0.120117)"/>
</clipPath>
</defs>
</svg>
