<svg width="21" height="20" viewBox="0 0 21 20" fill="none" xmlns="http://www.w3.org/2000/svg">
<path d="M18.3542 5.92613C18.3669 6.10379 18.3669 6.28148 18.3669 6.45914C18.3669 11.8779 14.2425 18.1216 6.70445 18.1216C4.3821 18.1216 2.22476 17.4489 0.410034 16.2815C0.739995 16.3195 1.05722 16.3322 1.39988 16.3322C3.31609 16.3322 5.08007 15.685 6.48871 14.581C4.68667 14.5429 3.17652 13.3627 2.65621 11.7383C2.91003 11.7764 3.16382 11.8018 3.43035 11.8018C3.79835 11.8018 4.1664 11.751 4.50902 11.6622C2.63085 11.2814 1.22218 9.63172 1.22218 7.63934V7.58859C1.76785 7.89316 2.40242 8.08352 3.07496 8.10887C1.97089 7.37281 1.24757 6.11648 1.24757 4.69516C1.24757 3.93375 1.45058 3.23578 1.80593 2.62664C3.82371 5.11395 6.85671 6.73828 10.2577 6.91598C10.1943 6.61141 10.1562 6.29418 10.1562 5.97691C10.1562 3.71801 11.9836 1.87793 14.2552 1.87793C15.4353 1.87793 16.5013 2.37285 17.2501 3.17234C18.1764 2.99469 19.0648 2.65203 19.8516 2.1825C19.547 3.1343 18.8998 3.93379 18.0496 4.44137C18.8744 4.35258 19.6739 4.1241 20.41 3.80687C19.8517 4.61902 19.1537 5.34234 18.3542 5.92613Z" fill="white"/>
</svg>
