<svg width="21" height="20" viewBox="0 0 21 20" fill="none" xmlns="http://www.w3.org/2000/svg">
<path d="M19.4953 5.41922C19.2772 4.59804 18.6346 3.95131 17.8187 3.73183C16.3399 3.33301 10.41 3.33301 10.41 3.33301C10.41 3.33301 4.48016 3.33301 3.00131 3.73183C2.18544 3.95134 1.54287 4.59804 1.32478 5.41922C0.928528 6.90766 0.928528 10.0131 0.928528 10.0131C0.928528 10.0131 0.928528 13.1186 1.32478 14.6071C1.54287 15.4283 2.18544 16.048 3.00131 16.2675C4.48016 16.6663 10.41 16.6663 10.41 16.6663C10.41 16.6663 16.3399 16.6663 17.8187 16.2675C18.6346 16.048 19.2772 15.4283 19.4953 14.6071C19.8915 13.1186 19.8915 10.0131 19.8915 10.0131C19.8915 10.0131 19.8915 6.90766 19.4953 5.41922ZM8.47061 12.8327V7.1936L13.4268 10.0132L8.47061 12.8327Z" fill="white"/>
</svg>
