<svg width="877" height="732" viewBox="0 0 877 732" fill="none" xmlns="http://www.w3.org/2000/svg">
<path d="M2.82641 208.829C18.6712 109.581 109.522 31.3269 236.346 7.69671C287.541 -1.84285 320.504 -2.40533 370.26 5.40131C412.854 12.083 474.356 37.3892 470.721 46.7356C469.481 49.9117 460.315 57.724 450.353 64.0989L432.227 75.6895L415.294 57.1558C376.833 15.0545 299.161 -0.530376 229.117 19.8044C103.241 56.3434 30.7089 196.954 74.7413 319.076C89.7703 360.751 130.394 416.494 158.893 434.545C211.382 467.789 233.547 473.647 306.815 473.647C364.51 473.647 381.86 471.51 407.959 461.181L439.463 448.715V363.581C439.463 263.123 438.057 260.583 382.617 260.583C355.032 260.583 346.609 258.589 346.609 252.061C346.609 244.72 369.047 243.538 508.778 243.538C717.041 243.538 768.157 252.549 806.565 296.043C860.433 357.041 831.158 442.051 747.669 467.056L721.339 474.948L757.983 481.538C831.125 494.692 871.31 529.867 875.946 584.803C879.893 631.564 873.128 655.41 849.311 678.642C818.331 708.874 784.274 721.135 715.449 726.845C648.535 732.391 419.565 734.021 419.565 728.948C419.565 727.181 423.134 720.152 427.498 713.323C431.855 706.499 437.082 681.739 439.105 658.302L442.779 615.689H472.625H502.47L504.387 668.727L506.297 721.772L613.821 719.8C738.099 717.522 763.673 710.323 795.947 668.546C811.858 647.95 814.192 639.37 814.192 601.485C814.192 563.86 811.805 554.952 796.391 534.997C769.669 500.407 730.094 486.311 648.515 482.328L582.059 479.084L635.781 475.936C701.959 472.056 728.548 459.511 753.353 420.466C789.586 363.439 766.651 291.065 703.431 262.884C690.624 257.18 659.936 254.901 595.801 254.901H506.085L504.281 358.592L502.47 462.283L452.727 465.704C425.369 467.584 394.031 472.391 383.087 476.385C371.925 480.453 336.979 483.669 303.499 483.703C113.176 483.902 -21.4348 360.837 2.82641 208.829Z" fill="#EBEDF0"/>
</svg>
