<svg width="21" height="21" viewBox="0 0 21 21" fill="none" xmlns="http://www.w3.org/2000/svg">
<path d="M10.1139 5.66772C7.62952 5.66772 5.62561 7.67163 5.62561 10.156C5.62561 12.6404 7.62952 14.6443 10.1139 14.6443C12.5983 14.6443 14.6022 12.6404 14.6022 10.156C14.6022 7.67163 12.5983 5.66772 10.1139 5.66772ZM10.1139 13.074C8.50842 13.074 7.19592 11.7654 7.19592 10.156C7.19592 8.54663 8.50452 7.23804 10.1139 7.23804C11.7233 7.23804 13.0319 8.54663 13.0319 10.156C13.0319 11.7654 11.7194 13.074 10.1139 13.074ZM15.8326 5.48413C15.8326 6.06616 15.3639 6.53101 14.7858 6.53101C14.2037 6.53101 13.7389 6.06226 13.7389 5.48413C13.7389 4.90601 14.2076 4.43726 14.7858 4.43726C15.3639 4.43726 15.8326 4.90601 15.8326 5.48413ZM18.8053 6.54663C18.7389 5.14429 18.4186 3.9021 17.3912 2.87866C16.3678 1.85522 15.1256 1.53491 13.7233 1.4646C12.278 1.38257 7.94592 1.38257 6.50061 1.4646C5.10217 1.53101 3.85999 1.85132 2.83264 2.87476C1.8053 3.89819 1.48889 5.14038 1.41858 6.54272C1.33655 7.98804 1.33655 12.3201 1.41858 13.7654C1.48499 15.1677 1.8053 16.4099 2.83264 17.4333C3.85999 18.4568 5.09827 18.7771 6.50061 18.8474C7.94592 18.9294 12.278 18.9294 13.7233 18.8474C15.1256 18.781 16.3678 18.4607 17.3912 17.4333C18.4147 16.4099 18.735 15.1677 18.8053 13.7654C18.8873 12.3201 18.8873 7.99194 18.8053 6.54663ZM16.9381 15.3162C16.6334 16.0818 16.0436 16.6716 15.274 16.9802C14.1217 17.4373 11.3873 17.3318 10.1139 17.3318C8.84045 17.3318 6.10217 17.4333 4.95374 16.9802C4.18811 16.6755 3.59827 16.0857 3.28967 15.3162C2.83264 14.1638 2.93811 11.4294 2.93811 10.156C2.93811 8.88257 2.83655 6.14429 3.28967 4.99585C3.59436 4.23022 4.1842 3.64038 4.95374 3.33179C6.10608 2.87476 8.84045 2.98022 10.1139 2.98022C11.3873 2.98022 14.1256 2.87866 15.274 3.33179C16.0397 3.63647 16.6295 4.22632 16.9381 4.99585C17.3951 6.14819 17.2897 8.88257 17.2897 10.156C17.2897 11.4294 17.3951 14.1677 16.9381 15.3162Z" fill="#1A191C"/>
</svg>
