<svg width="21" height="21" viewBox="0 0 21 21" fill="none" xmlns="http://www.w3.org/2000/svg">
<path d="M17.61 1.40991H2.60608C1.91858 1.40991 1.35999 1.97632 1.35999 2.67163V17.6482C1.35999 18.3435 1.91858 18.9099 2.60608 18.9099H17.61C18.2975 18.9099 18.86 18.3435 18.86 17.6482V2.67163C18.86 1.97632 18.2975 1.40991 17.61 1.40991ZM6.64905 16.4099H4.0553V8.05835H6.65295V16.4099H6.64905ZM5.35217 6.91772C4.52014 6.91772 3.84827 6.24194 3.84827 5.41382C3.84827 4.58569 4.52014 3.90991 5.35217 3.90991C6.1803 3.90991 6.85608 4.58569 6.85608 5.41382C6.85608 6.24585 6.1842 6.91772 5.35217 6.91772ZM16.3717 16.4099H13.778V12.3474C13.778 11.3787 13.7584 10.1326 12.4303 10.1326C11.0787 10.1326 10.8717 11.1873 10.8717 12.2771V16.4099H8.27795V8.05835H10.7662V9.19897H10.8014C11.149 8.54272 11.9967 7.85132 13.2584 7.85132C15.8834 7.85132 16.3717 9.58179 16.3717 11.8318V16.4099Z" fill="#3782FF"/>
</svg>
