<svg width="88" height="84" viewBox="0 0 88 84" fill="none" xmlns="http://www.w3.org/2000/svg">
<path d="M0.282303 23.9495C1.86489 12.5672 10.9391 3.59271 23.6064 0.882696C28.7198 -0.211347 32.0121 -0.275855 36.9818 0.619448C41.236 1.38573 47.3789 4.28798 47.0159 5.35986C46.892 5.72411 45.9765 6.62006 44.9815 7.35116L43.171 8.68043L41.4798 6.5549C37.6383 1.72652 29.8804 -0.0608261 22.8843 2.27126C10.3117 6.46173 3.06723 22.5876 7.4652 36.5932C8.9663 41.3727 13.0238 47.7656 15.8703 49.8357C21.1129 53.6482 23.3268 54.32 30.6448 54.32C36.4075 54.32 38.1404 54.075 40.7471 52.8904L43.8938 51.4608V41.6972C43.8938 30.1762 43.7533 29.8849 38.2159 29.8849C35.4608 29.8849 34.6195 29.6562 34.6195 28.9075C34.6195 28.0656 36.8606 27.9301 50.817 27.9301C71.6184 27.9301 76.7239 28.9635 80.5601 33.9516C85.9405 40.9472 83.0165 50.6965 74.6776 53.5642L72.0477 54.4693L75.7077 55.2251C83.0132 56.7336 87.0269 60.7677 87.49 67.068C87.8841 72.4307 87.2084 75.1655 84.8296 77.8299C81.7353 81.2971 78.3336 82.7032 71.4594 83.3581C64.776 83.9941 41.9064 84.1811 41.9064 83.5992C41.9064 83.3965 42.2628 82.5905 42.6987 81.8073C43.1339 81.0247 43.6559 78.185 43.858 75.4972L44.225 70.6101H47.206H50.187L50.3784 76.6928L50.5692 82.7762L61.3088 82.5501C73.7217 82.2888 76.2761 81.4632 79.4995 76.672C81.0888 74.3099 81.3219 73.326 81.3219 68.9811C81.3219 64.6662 81.0835 63.6445 79.5439 61.3561C76.8749 57.3891 72.9221 55.7725 64.774 55.3157L58.1363 54.9436L63.5021 54.5826C70.112 54.1376 72.7678 52.6989 75.2453 48.221C78.8643 41.6809 76.5735 33.3808 70.2591 30.1488C68.9799 29.4946 65.9148 29.2333 59.5089 29.2333H50.548L50.3678 41.1251L50.187 53.0168L45.2186 53.4091C42.4861 53.6248 39.356 54.176 38.263 54.6341C37.1481 55.1007 33.6576 55.4695 30.3136 55.4734C11.3041 55.4962 -2.14092 41.3825 0.282303 23.9495Z" fill="white"/>
</svg>
