<svg width="18" height="18" viewBox="0 0 18 18" fill="none" xmlns="http://www.w3.org/2000/svg">
<path d="M15.875 0.359375H2.125C1.62772 0.359375 1.15081 0.556919 0.799175 0.90855C0.447544 1.26018 0.25 1.73709 0.25 2.23438L0.25 15.9844C0.25 16.4817 0.447544 16.9586 0.799175 17.3102C1.15081 17.6618 1.62772 17.8594 2.125 17.8594H15.875C16.3723 17.8594 16.8492 17.6618 17.2008 17.3102C17.5525 16.9586 17.75 16.4817 17.75 15.9844V2.23438C17.75 1.73709 17.5525 1.26018 17.2008 0.90855C16.8492 0.556919 16.3723 0.359375 15.875 0.359375ZM15.2348 12.366L14.6488 14.9051C14.6191 15.0342 14.5464 15.1494 14.4428 15.2319C14.3391 15.3144 14.2106 15.3593 14.0781 15.3594C7.82812 15.3594 2.75 10.2926 2.75 4.03125C2.75465 3.90002 2.8013 3.77375 2.88308 3.67101C2.96486 3.56828 3.07745 3.4945 3.2043 3.46055L5.74336 2.87461C5.78667 2.86545 5.83074 2.86035 5.875 2.85938C5.98831 2.86509 6.09802 2.90104 6.19274 2.96348C6.28747 3.02592 6.36375 3.11258 6.41367 3.21445L7.58555 5.94883C7.61425 6.02255 7.63023 6.10061 7.63281 6.17969C7.62327 6.35314 7.54615 6.51595 7.41797 6.6332L5.93789 7.84414C6.83469 9.74489 8.36449 11.2747 10.2652 12.1715L11.4762 10.6914C11.5934 10.5632 11.7562 10.4861 11.9297 10.4766C12.0088 10.4791 12.0868 10.4951 12.1605 10.5238L14.8949 11.6957C14.9969 11.7456 15.0836 11.8218 15.146 11.9166C15.2084 12.0113 15.2444 12.121 15.25 12.2344C15.2492 12.2786 15.2441 12.3227 15.2348 12.366Z" fill="#EBEBEB"/>
</svg>
