<svg width="17" height="16" viewBox="0 0 17 16" fill="none" xmlns="http://www.w3.org/2000/svg">
<path d="M16.3072 5.9625C16.4291 5.86563 16.6104 5.95625 16.6104 6.10938V12.5C16.6104 13.3281 15.9385 14 15.1104 14H2.11035C1.28223 14 0.610352 13.3281 0.610352 12.5V6.1125C0.610352 5.95625 0.788477 5.86875 0.913477 5.96562C1.61348 6.50937 2.5416 7.2 5.7291 9.51562C6.38848 9.99687 7.50098 11.0094 8.61035 11.0031C9.72598 11.0125 10.8604 9.97813 11.4947 9.51562C14.6822 7.2 15.6072 6.50625 16.3072 5.9625ZM8.61035 10C9.33535 10.0125 10.3791 9.0875 10.9041 8.70625C15.051 5.69688 15.3666 5.43437 16.3229 4.68437C16.5041 4.54375 16.6104 4.325 16.6104 4.09375V3.5C16.6104 2.67188 15.9385 2 15.1104 2H2.11035C1.28223 2 0.610352 2.67188 0.610352 3.5V4.09375C0.610352 4.325 0.716602 4.54062 0.897852 4.68437C1.8541 5.43125 2.16973 5.69688 6.3166 8.70625C6.8416 9.0875 7.88535 10.0125 8.61035 10Z" fill="#3782FF"/>
</svg>
