<svg width="17" height="17" viewBox="0 0 17 17" fill="none" xmlns="http://www.w3.org/2000/svg">
<path d="M4.7441 14.7499H1.8416V5.40306H4.7441V14.7499ZM3.29129 4.12806C2.36316 4.12806 1.61035 3.35931 1.61035 2.43118C1.61035 1.98537 1.78745 1.55782 2.10269 1.24258C2.41792 0.927342 2.84548 0.750244 3.29129 0.750244C3.7371 0.750244 4.16465 0.927342 4.47989 1.24258C4.79513 1.55782 4.97223 1.98537 4.97223 2.43118C4.97223 3.35931 4.2191 4.12806 3.29129 4.12806ZM15.6072 14.7499H12.711V10.1999C12.711 9.11556 12.6891 7.72493 11.2019 7.72493C9.69285 7.72493 9.4616 8.90306 9.4616 10.1218V14.7499H6.56223V5.40306H9.34598V6.67806H9.3866C9.7741 5.94368 10.7207 5.16868 12.1329 5.16868C15.0704 5.16868 15.6104 7.10306 15.6104 9.61556V14.7499H15.6072Z" fill="#3782FF"/>
</svg>
