<svg width="17" height="17" viewBox="0 0 17 17" fill="none" xmlns="http://www.w3.org/2000/svg">
<path d="M7.99373 16.0473C3.45316 9.46484 2.61035 8.78927 2.61035 6.37012C2.61035 3.0564 5.29663 0.370117 8.61035 0.370117C11.9241 0.370117 14.6104 3.0564 14.6104 6.37012C14.6104 8.78927 13.7675 9.46484 9.22698 16.0473C8.92901 16.4777 8.29166 16.4777 7.99373 16.0473ZM8.61035 8.87012C9.99107 8.87012 11.1104 7.75084 11.1104 6.37012C11.1104 4.9894 9.99107 3.87012 8.61035 3.87012C7.22963 3.87012 6.11035 4.9894 6.11035 6.37012C6.11035 7.75084 7.22963 8.87012 8.61035 8.87012Z" fill="#3782FF"/>
</svg>
