<svg width="17" height="17" viewBox="0 0 17 17" fill="none" xmlns="http://www.w3.org/2000/svg">
<path d="M16.1538 11.9861L12.6538 10.4861C12.5043 10.4224 12.3381 10.409 12.1803 10.4479C12.0225 10.4868 11.8816 10.5759 11.7788 10.7018L10.2288 12.5955C7.79621 11.4486 5.83854 9.49091 4.6916 7.05833L6.58535 5.50833C6.7115 5.40573 6.80079 5.26482 6.83969 5.10694C6.8786 4.94906 6.86501 4.7828 6.80098 4.63333L5.30098 1.13333C5.2307 0.972208 5.1064 0.840657 4.94952 0.761361C4.79264 0.682065 4.61301 0.659994 4.4416 0.698955L1.1916 1.44895C1.02634 1.48712 0.878897 1.58017 0.773331 1.71292C0.667766 1.84567 0.610313 2.01028 0.610352 2.17989C0.610352 10.1955 7.10723 16.6799 15.1104 16.6799C15.28 16.68 15.4447 16.6226 15.5775 16.517C15.7103 16.4114 15.8034 16.264 15.8416 16.0986L16.5916 12.8486C16.6303 12.6764 16.6078 12.496 16.5279 12.3386C16.448 12.1812 16.3157 12.0566 16.1538 11.9861Z" fill="#3782FF"/>
</svg>
