<svg width="17" height="17" viewBox="0 0 17 17" fill="none" xmlns="http://www.w3.org/2000/svg">
<path d="M15.8788 4.45584C15.7043 3.79889 15.1903 3.2815 14.5376 3.10592C13.3545 2.78687 8.61058 2.78687 8.61058 2.78687C8.61058 2.78687 3.8667 2.78687 2.68361 3.10592C2.03092 3.28153 1.51686 3.79889 1.34239 4.45584C1.02539 5.64659 1.02539 8.13098 1.02539 8.13098C1.02539 8.13098 1.02539 10.6154 1.34239 11.8061C1.51686 12.4631 2.03092 12.9589 2.68361 13.1345C3.8667 13.4535 8.61058 13.4535 8.61058 13.4535C8.61058 13.4535 13.3545 13.4535 14.5376 13.1345C15.1903 12.9589 15.7043 12.4631 15.8788 11.8061C16.1958 10.6154 16.1958 8.13098 16.1958 8.13098C16.1958 8.13098 16.1958 5.64659 15.8788 4.45584ZM7.05906 10.3866V5.87534L11.024 8.13103L7.05906 10.3866Z" fill="#3782FF"/>
</svg>
